<svg width="87" height="65" viewBox="0 0 87 65" fill="none" xmlns="http://www.w3.org/2000/svg">
<path d="M54.0141 0.876753L51.0783 0.0719182C50.7004 -0.0540963 50.3282 -0.0144674 49.9662 0.190472C49.6031 0.395577 49.3579 0.703483 49.2319 1.11369L31.5742 62.2287C31.4482 62.6391 31.4877 63.0261 31.6928 63.3885C31.8979 63.7517 32.2051 63.9962 32.616 64.1222L35.551 64.9274C35.9297 65.0544 36.3006 65.0146 36.6636 64.8093C37.0267 64.6032 37.2714 64.2963 37.3973 63.8868L55.0554 2.77078C55.1812 2.36057 55.1421 1.97358 54.9367 1.61029C54.7314 1.24717 54.4245 1.0026 54.0141 0.876753Z" fill="white"/>
<path d="M27.5519 12.8071C27.5519 12.3969 27.3939 12.0336 27.0783 11.7182L24.7111 9.35116C24.3956 9.03562 24.0324 8.87744 23.6222 8.87744C23.212 8.87744 22.8487 9.03579 22.5334 9.35116L0.473549 31.411C0.157518 31.7265 0 32.0896 0 32.4998C0 32.91 0.158015 33.2732 0.473549 33.5885L22.5332 55.6483C22.8486 55.9643 23.2112 56.1215 23.6221 56.1215C24.0329 56.1215 24.3956 55.9639 24.7109 55.6483L27.0782 53.2826C27.3937 52.9672 27.5517 52.6039 27.5517 52.1932C27.5517 51.7835 27.3937 51.4204 27.0782 51.105L8.47397 32.4998L27.0783 13.896C27.3944 13.5806 27.5519 13.2173 27.5519 12.8071Z" fill="white"/>
<path d="M86.1564 31.4105L64.0961 9.35067C63.7807 9.0353 63.4174 8.87695 63.0079 8.87695C62.597 8.87695 62.235 9.0353 61.9185 9.35067L59.5523 11.7176C59.2369 12.0331 59.0795 12.3957 59.0795 12.8064C59.0795 13.2172 59.2367 13.5799 59.5523 13.8953L78.157 32.4997L59.5523 51.105C59.2369 51.4204 59.0795 51.7837 59.0795 52.1932C59.0795 52.6041 59.2367 52.9672 59.5523 53.2826L61.9185 55.6483C62.235 55.9644 62.5972 56.1215 63.0079 56.1215C63.4176 56.1215 63.7807 55.9639 64.0961 55.6483L86.1564 33.5887C86.4719 33.2733 86.6296 32.9095 86.6296 32.4993C86.6296 32.089 86.4719 31.7258 86.1564 31.4105Z" fill="white"/>
</svg>
