<svg width="266" height="56" viewBox="0 0 266 56" fill="none" xmlns="http://www.w3.org/2000/svg">
<rect width="266" height="56" fill="white"/>
<path d="M7.77821 40.0994L13.2443 34.4058C13.5078 34.1313 13.9353 34.1313 14.1989 34.4058L14.8365 35.07C15.0997 35.3442 15.1 35.7884 14.8376 36.0632L10.5055 40.5966L14.8373 45.1303C15.1 45.4051 15.0994 45.8492 14.8362 46.1234L14.1986 46.7876C13.9351 47.0621 13.5076 47.0621 13.244 46.7876L7.77821 41.0937C7.51468 40.8192 7.51468 40.3739 7.77821 40.0994V40.0994Z" fill="#009485"/>
<path d="M223.029 41.9972L217.563 47.6909C217.3 47.9655 216.872 47.9655 216.609 47.6909L215.971 47.0268C215.708 46.7527 215.707 46.3084 215.97 46.0336L220.302 41.5L215.97 36.9665C215.707 36.6917 215.708 36.2474 215.971 35.9733L216.609 35.3092C216.872 35.0346 217.3 35.0346 217.563 35.3092L223.029 41.0029C223.293 41.2774 223.293 41.7226 223.029 41.9972Z" fill="#009485"/>
<path d="M14.5119 24.288C13.1839 24.288 11.8959 24.112 10.6479 23.76C9.41588 23.392 8.42388 22.92 7.67188 22.344L8.99188 19.416C9.71188 19.944 10.5679 20.368 11.5599 20.688C12.5519 21.008 13.5439 21.168 14.5359 21.168C15.6399 21.168 16.4559 21.008 16.9839 20.688C17.5119 20.352 17.7759 19.912 17.7759 19.368C17.7759 18.968 17.6159 18.64 17.2959 18.384C16.9919 18.112 16.5919 17.896 16.0959 17.736C15.6159 17.576 14.9599 17.4 14.1279 17.208C12.8479 16.904 11.7999 16.6 10.9839 16.296C10.1679 15.992 9.46387 15.504 8.87187 14.832C8.29587 14.16 8.00788 13.264 8.00788 12.144C8.00788 11.168 8.27188 10.288 8.79988 9.50399C9.32788 8.70399 10.1199 8.07199 11.1759 7.60799C12.2479 7.14399 13.5519 6.91199 15.0879 6.91199C16.1599 6.91199 17.2079 7.03999 18.2319 7.29599C19.2559 7.55199 20.1519 7.91999 20.9199 8.39999L19.7199 11.352C18.1679 10.472 16.6159 10.032 15.0639 10.032C13.9759 10.032 13.1679 10.208 12.6399 10.56C12.1279 10.912 11.8719 11.376 11.8719 11.952C11.8719 12.528 12.1679 12.96 12.7599 13.248C13.3679 13.52 14.2879 13.792 15.5199 14.064C16.7999 14.368 17.8479 14.672 18.6639 14.976C19.4799 15.28 20.1759 15.76 20.7519 16.416C21.3439 17.072 21.6399 17.96 21.6399 19.08C21.6399 20.04 21.3679 20.92 20.8239 21.72C20.2959 22.504 19.4959 23.128 18.4239 23.592C17.3519 24.056 16.0479 24.288 14.5119 24.288Z" fill="#009485"/>
<path d="M27.5422 10.368H22.1662V7.19999H36.8062V10.368H31.4302V24H27.5422V10.368Z" fill="#009485"/>
<path d="M51.9061 20.88V24H38.8981V7.19999H51.5941V10.32H42.7621V13.968H50.5621V16.992H42.7621V20.88H51.9061Z" fill="#009485"/>
<path d="M58.8877 10.32V14.76H66.6637V17.88H58.8877V24H54.9997V7.19999H67.6957V10.32H58.8877Z" fill="#009485"/>
<path d="M80.6887 20.4H72.8887L71.4007 24H67.4167L74.9047 7.19999H78.7447L86.2567 24H82.1767L80.6887 20.4ZM79.4647 17.448L76.8007 11.016L74.1367 17.448H79.4647Z" fill="#009485"/>
<path d="M103.408 7.19999V24H100.216L91.8397 13.8V24H87.9997V7.19999H91.2157L99.5677 17.4V7.19999H103.408Z" fill="#009485"/>
<path d="M129.467 24L129.443 13.92L124.499 22.224H122.747L117.827 14.136V24H114.179V7.19999H117.395L123.683 17.64L129.875 7.19999H133.067L133.115 24H129.467Z" fill="#009485"/>
<path d="M145.237 24.288C143.493 24.288 141.917 23.912 140.509 23.16C139.117 22.408 138.021 21.376 137.221 20.064C136.437 18.736 136.045 17.248 136.045 15.6C136.045 13.952 136.437 12.472 137.221 11.16C138.021 9.83199 139.117 8.79199 140.509 8.03999C141.917 7.28799 143.493 6.91199 145.237 6.91199C146.981 6.91199 148.549 7.28799 149.941 8.03999C151.333 8.79199 152.429 9.83199 153.229 11.16C154.029 12.472 154.429 13.952 154.429 15.6C154.429 17.248 154.029 18.736 153.229 20.064C152.429 21.376 151.333 22.408 149.941 23.16C148.549 23.912 146.981 24.288 145.237 24.288ZM145.237 20.976C146.229 20.976 147.125 20.752 147.925 20.304C148.725 19.84 149.349 19.2 149.797 18.384C150.261 17.568 150.493 16.64 150.493 15.6C150.493 14.56 150.261 13.632 149.797 12.816C149.349 12 148.725 11.368 147.925 10.92C147.125 10.456 146.229 10.224 145.237 10.224C144.245 10.224 143.349 10.456 142.549 10.92C141.749 11.368 141.117 12 140.653 12.816C140.205 13.632 139.981 14.56 139.981 15.6C139.981 16.64 140.205 17.568 140.653 18.384C141.117 19.2 141.749 19.84 142.549 20.304C143.349 20.752 144.245 20.976 145.237 20.976Z" fill="#009485"/>
<path d="M172.759 7.19999V24H168.871V17.112H161.239V24H157.351V7.19999H161.239V13.824H168.871V7.19999H172.759Z" fill="#009485"/>
<path d="M189.742 20.88V24H176.734V7.19999H189.43V10.32H180.598V13.968H188.398V16.992H180.598V20.88H189.742Z" fill="#009485"/>
<path d="M208.244 7.19999V24H205.052L196.676 13.8V24H192.836V7.19999H196.052L204.404 17.4V7.19999H208.244Z" fill="#009485"/>
<path d="M217.738 24.288C216.41 24.288 215.122 24.112 213.874 23.76C212.642 23.392 211.65 22.92 210.898 22.344L212.218 19.416C212.938 19.944 213.794 20.368 214.786 20.688C215.778 21.008 216.77 21.168 217.762 21.168C218.866 21.168 219.682 21.008 220.21 20.688C220.738 20.352 221.002 19.912 221.002 19.368C221.002 18.968 220.842 18.64 220.522 18.384C220.218 18.112 219.818 17.896 219.322 17.736C218.842 17.576 218.186 17.4 217.354 17.208C216.074 16.904 215.026 16.6 214.21 16.296C213.394 15.992 212.69 15.504 212.098 14.832C211.522 14.16 211.234 13.264 211.234 12.144C211.234 11.168 211.498 10.288 212.026 9.50399C212.554 8.70399 213.346 8.07199 214.402 7.60799C215.474 7.14399 216.778 6.91199 218.314 6.91199C219.386 6.91199 220.434 7.03999 221.458 7.29599C222.482 7.55199 223.378 7.91999 224.146 8.39999L222.946 11.352C221.394 10.472 219.842 10.032 218.29 10.032C217.202 10.032 216.394 10.208 215.866 10.56C215.354 10.912 215.098 11.376 215.098 11.952C215.098 12.528 215.394 12.96 215.986 13.248C216.594 13.52 217.514 13.792 218.746 14.064C220.026 14.368 221.074 14.672 221.89 14.976C222.706 15.28 223.402 15.76 223.978 16.416C224.57 17.072 224.866 17.96 224.866 19.08C224.866 20.04 224.594 20.92 224.05 21.72C223.522 22.504 222.722 23.128 221.65 23.592C220.578 24.056 219.274 24.288 217.738 24.288Z" fill="#009485"/>
<path d="M233.643 17.4L231.387 19.752V24H227.523V7.19999H231.387V15.048L238.827 7.19999H243.147L236.187 14.688L243.555 24H239.019L233.643 17.4Z" fill="#009485"/>
<path d="M245.289 7.19999H249.177V24H245.289V7.19999Z" fill="#009485"/>
<path d="M23.4674 36.362V40.196H29.5514V42.176H23.4674V47H21.1274V34.4H30.3254V36.362H23.4674Z" fill="#009485"/>
<path d="M34.3386 38.792C34.9866 37.784 36.1266 37.28 37.7586 37.28V39.422C37.5666 39.386 37.3926 39.368 37.2366 39.368C36.3606 39.368 35.6766 39.626 35.1846 40.142C34.6926 40.646 34.4466 41.378 34.4466 42.338V47H32.1966V37.388H34.3386V38.792Z" fill="#009485"/>
<path d="M43.8994 47.126C42.9274 47.126 42.0514 46.916 41.2714 46.496C40.4914 46.076 39.8794 45.494 39.4354 44.75C39.0034 43.994 38.7874 43.142 38.7874 42.194C38.7874 41.246 39.0034 40.4 39.4354 39.656C39.8794 38.912 40.4914 38.33 41.2714 37.91C42.0514 37.49 42.9274 37.28 43.8994 37.28C44.8834 37.28 45.7654 37.49 46.5454 37.91C47.3254 38.33 47.9314 38.912 48.3634 39.656C48.8074 40.4 49.0294 41.246 49.0294 42.194C49.0294 43.142 48.8074 43.994 48.3634 44.75C47.9314 45.494 47.3254 46.076 46.5454 46.496C45.7654 46.916 44.8834 47.126 43.8994 47.126ZM43.8994 45.2C44.7274 45.2 45.4114 44.924 45.9514 44.372C46.4914 43.82 46.7614 43.094 46.7614 42.194C46.7614 41.294 46.4914 40.568 45.9514 40.016C45.4114 39.464 44.7274 39.188 43.8994 39.188C43.0714 39.188 42.3874 39.464 41.8474 40.016C41.3194 40.568 41.0554 41.294 41.0554 42.194C41.0554 43.094 41.3194 43.82 41.8474 44.372C42.3874 44.924 43.0714 45.2 43.8994 45.2Z" fill="#009485"/>
<path d="M56.635 37.28C57.847 37.28 58.819 37.634 59.551 38.342C60.283 39.05 60.649 40.1 60.649 41.492V47H58.399V41.78C58.399 40.94 58.201 40.31 57.805 39.89C57.409 39.458 56.845 39.242 56.113 39.242C55.285 39.242 54.631 39.494 54.151 39.998C53.671 40.49 53.431 41.204 53.431 42.14V47H51.181V37.388H53.323V38.63C53.695 38.186 54.163 37.85 54.727 37.622C55.291 37.394 55.927 37.28 56.635 37.28Z" fill="#009485"/>
<path d="M69.2812 46.478C69.0172 46.694 68.6932 46.856 68.3092 46.964C67.9372 47.072 67.5412 47.126 67.1212 47.126C66.0652 47.126 65.2492 46.85 64.6732 46.298C64.0972 45.746 63.8092 44.942 63.8092 43.886V39.26H62.2252V37.46H63.8092V35.264H66.0592V37.46H68.6332V39.26H66.0592V43.832C66.0592 44.3 66.1732 44.66 66.4012 44.912C66.6292 45.152 66.9592 45.272 67.3912 45.272C67.8952 45.272 68.3152 45.14 68.6512 44.876L69.2812 46.478Z" fill="#009485"/>
<path d="M85.7728 45.038V47H76.3228V34.4H85.5208V36.362H78.6628V39.638H84.7467V41.564H78.6628V45.038H85.7728Z" fill="#009485"/>
<path d="M93.6193 37.28C94.8313 37.28 95.8033 37.634 96.5353 38.342C97.2673 39.05 97.6333 40.1 97.6333 41.492V47H95.3833V41.78C95.3833 40.94 95.1853 40.31 94.7893 39.89C94.3933 39.458 93.8293 39.242 93.0973 39.242C92.2693 39.242 91.6153 39.494 91.1353 39.998C90.6553 40.49 90.4153 41.204 90.4153 42.14V47H88.1653V37.388H90.3074V38.63C90.6794 38.186 91.1473 37.85 91.7113 37.622C92.2753 37.394 92.9113 37.28 93.6193 37.28Z" fill="#009485"/>
<path d="M109.99 33.644V47H107.83V45.758C107.458 46.214 106.996 46.556 106.444 46.784C105.904 47.012 105.304 47.126 104.644 47.126C103.72 47.126 102.886 46.922 102.142 46.514C101.41 46.106 100.834 45.53 100.414 44.786C99.9935 44.03 99.7835 43.166 99.7835 42.194C99.7835 41.222 99.9935 40.364 100.414 39.62C100.834 38.876 101.41 38.3 102.142 37.892C102.886 37.484 103.72 37.28 104.644 37.28C105.28 37.28 105.862 37.388 106.39 37.604C106.918 37.82 107.368 38.144 107.74 38.576V33.644H109.99ZM104.914 45.2C105.454 45.2 105.94 45.08 106.372 44.84C106.804 44.588 107.146 44.234 107.398 43.778C107.65 43.322 107.776 42.794 107.776 42.194C107.776 41.594 107.65 41.066 107.398 40.61C107.146 40.154 106.804 39.806 106.372 39.566C105.94 39.314 105.454 39.188 104.914 39.188C104.374 39.188 103.888 39.314 103.456 39.566C103.024 39.806 102.682 40.154 102.43 40.61C102.178 41.066 102.052 41.594 102.052 42.194C102.052 42.794 102.178 43.322 102.43 43.778C102.682 44.234 103.024 44.588 103.456 44.84C103.888 45.08 104.374 45.2 104.914 45.2Z" fill="#009485"/>
<path d="M118.124 34.4H123.632C124.976 34.4 126.17 34.664 127.214 35.192C128.258 35.708 129.068 36.446 129.644 37.406C130.22 38.354 130.508 39.452 130.508 40.7C130.508 41.948 130.22 43.052 129.644 44.012C129.068 44.96 128.258 45.698 127.214 46.226C126.17 46.742 124.976 47 123.632 47H118.124V34.4ZM123.524 45.02C124.448 45.02 125.258 44.846 125.954 44.498C126.662 44.138 127.202 43.634 127.574 42.986C127.958 42.326 128.15 41.564 128.15 40.7C128.15 39.836 127.958 39.08 127.574 38.432C127.202 37.772 126.662 37.268 125.954 36.92C125.258 36.56 124.448 36.38 123.524 36.38H120.464V45.02H123.524Z" fill="#009485"/>
<path d="M141.815 42.248C141.815 42.404 141.803 42.626 141.779 42.914H134.237C134.369 43.622 134.711 44.186 135.263 44.606C135.827 45.014 136.523 45.218 137.351 45.218C138.407 45.218 139.277 44.87 139.961 44.174L141.167 45.56C140.735 46.076 140.189 46.466 139.529 46.73C138.869 46.994 138.125 47.126 137.297 47.126C136.241 47.126 135.311 46.916 134.507 46.496C133.703 46.076 133.079 45.494 132.635 44.75C132.203 43.994 131.987 43.142 131.987 42.194C131.987 41.258 132.197 40.418 132.617 39.674C133.049 38.918 133.643 38.33 134.399 37.91C135.155 37.49 136.007 37.28 136.955 37.28C137.891 37.28 138.725 37.49 139.457 37.91C140.201 38.318 140.777 38.9 141.185 39.656C141.605 40.4 141.815 41.264 141.815 42.248ZM136.955 39.08C136.235 39.08 135.623 39.296 135.119 39.728C134.627 40.148 134.327 40.712 134.219 41.42H139.673C139.577 40.724 139.283 40.16 138.791 39.728C138.299 39.296 137.687 39.08 136.955 39.08Z" fill="#009485"/>
<path d="M152.8 37.388L148.678 47H146.356L142.234 37.388H144.574L147.562 44.516L150.64 37.388H152.8Z" fill="#009485"/>
<path d="M162.979 42.248C162.979 42.404 162.967 42.626 162.943 42.914H155.401C155.533 43.622 155.875 44.186 156.427 44.606C156.991 45.014 157.687 45.218 158.515 45.218C159.571 45.218 160.441 44.87 161.125 44.174L162.331 45.56C161.899 46.076 161.353 46.466 160.693 46.73C160.033 46.994 159.289 47.126 158.461 47.126C157.405 47.126 156.475 46.916 155.671 46.496C154.867 46.076 154.243 45.494 153.799 44.75C153.367 43.994 153.151 43.142 153.151 42.194C153.151 41.258 153.361 40.418 153.781 39.674C154.213 38.918 154.807 38.33 155.563 37.91C156.319 37.49 157.171 37.28 158.119 37.28C159.055 37.28 159.889 37.49 160.621 37.91C161.365 38.318 161.941 38.9 162.349 39.656C162.769 40.4 162.979 41.264 162.979 42.248ZM158.119 39.08C157.399 39.08 156.787 39.296 156.283 39.728C155.791 40.148 155.491 40.712 155.383 41.42H160.837C160.741 40.724 160.447 40.16 159.955 39.728C159.463 39.296 158.851 39.08 158.119 39.08Z" fill="#009485"/>
<path d="M165.14 33.644H167.39V47H165.14V33.644Z" fill="#009485"/>
<path d="M174.663 47.126C173.691 47.126 172.815 46.916 172.035 46.496C171.255 46.076 170.643 45.494 170.199 44.75C169.767 43.994 169.551 43.142 169.551 42.194C169.551 41.246 169.767 40.4 170.199 39.656C170.643 38.912 171.255 38.33 172.035 37.91C172.815 37.49 173.691 37.28 174.663 37.28C175.647 37.28 176.529 37.49 177.309 37.91C178.089 38.33 178.695 38.912 179.127 39.656C179.571 40.4 179.793 41.246 179.793 42.194C179.793 43.142 179.571 43.994 179.127 44.75C178.695 45.494 178.089 46.076 177.309 46.496C176.529 46.916 175.647 47.126 174.663 47.126ZM174.663 45.2C175.491 45.2 176.175 44.924 176.715 44.372C177.255 43.82 177.525 43.094 177.525 42.194C177.525 41.294 177.255 40.568 176.715 40.016C176.175 39.464 175.491 39.188 174.663 39.188C173.835 39.188 173.151 39.464 172.611 40.016C172.083 40.568 171.819 41.294 171.819 42.194C171.819 43.094 172.083 43.82 172.611 44.372C173.151 44.924 173.835 45.2 174.663 45.2Z" fill="#009485"/>
<path d="M187.273 37.28C188.209 37.28 189.043 37.484 189.775 37.892C190.519 38.3 191.101 38.876 191.521 39.62C191.941 40.364 192.151 41.222 192.151 42.194C192.151 43.166 191.941 44.03 191.521 44.786C191.101 45.53 190.519 46.106 189.775 46.514C189.043 46.922 188.209 47.126 187.273 47.126C185.977 47.126 184.951 46.694 184.195 45.83V50.492H181.945V37.388H184.087V38.648C184.459 38.192 184.915 37.85 185.455 37.622C186.007 37.394 186.613 37.28 187.273 37.28ZM187.021 45.2C187.849 45.2 188.527 44.924 189.055 44.372C189.595 43.82 189.865 43.094 189.865 42.194C189.865 41.294 189.595 40.568 189.055 40.016C188.527 39.464 187.849 39.188 187.021 39.188C186.481 39.188 185.995 39.314 185.563 39.566C185.131 39.806 184.789 40.154 184.537 40.61C184.285 41.066 184.159 41.594 184.159 42.194C184.159 42.794 184.285 43.322 184.537 43.778C184.789 44.234 185.131 44.588 185.563 44.84C185.995 45.08 186.481 45.2 187.021 45.2Z" fill="#009485"/>
<path d="M203.32 42.248C203.32 42.404 203.308 42.626 203.284 42.914H195.742C195.874 43.622 196.216 44.186 196.768 44.606C197.332 45.014 198.028 45.218 198.856 45.218C199.912 45.218 200.782 44.87 201.466 44.174L202.672 45.56C202.24 46.076 201.694 46.466 201.034 46.73C200.374 46.994 199.63 47.126 198.802 47.126C197.746 47.126 196.816 46.916 196.012 46.496C195.208 46.076 194.584 45.494 194.14 44.75C193.708 43.994 193.492 43.142 193.492 42.194C193.492 41.258 193.702 40.418 194.122 39.674C194.554 38.918 195.148 38.33 195.904 37.91C196.66 37.49 197.512 37.28 198.46 37.28C199.396 37.28 200.23 37.49 200.962 37.91C201.706 38.318 202.282 38.9 202.69 39.656C203.11 40.4 203.32 41.264 203.32 42.248ZM198.46 39.08C197.74 39.08 197.128 39.296 196.624 39.728C196.132 40.148 195.832 40.712 195.724 41.42H201.178C201.082 40.724 200.788 40.16 200.296 39.728C199.804 39.296 199.192 39.08 198.46 39.08Z" fill="#009485"/>
<path d="M207.624 38.792C208.272 37.784 209.412 37.28 211.044 37.28V39.422C210.852 39.386 210.678 39.368 210.522 39.368C209.646 39.368 208.962 39.626 208.47 40.142C207.978 40.646 207.732 41.378 207.732 42.338V47H205.482V37.388H207.624V38.792Z" fill="#009485"/>
</svg>
