<svg width="259" height="50" viewBox="0 0 259 50" fill="none" xmlns="http://www.w3.org/2000/svg">
<path d="M55.9012 21.24C54.6052 21.24 53.3492 21.056 52.1332 20.688C50.9332 20.32 49.9812 19.832 49.2772 19.224L50.3572 16.8C51.0452 17.344 51.8852 17.792 52.8772 18.144C53.8852 18.48 54.8932 18.648 55.9012 18.648C57.1492 18.648 58.0772 18.448 58.6852 18.048C59.3092 17.648 59.6212 17.12 59.6212 16.464C59.6212 15.984 59.4452 15.592 59.0932 15.288C58.7572 14.968 58.3252 14.72 57.7972 14.544C57.2692 14.368 56.5492 14.168 55.6372 13.944C54.3572 13.64 53.3172 13.336 52.5172 13.032C51.7332 12.728 51.0532 12.256 50.4772 11.616C49.9172 10.96 49.6372 10.08 49.6372 8.976C49.6372 8.048 49.8852 7.208 50.3812 6.456C50.8932 5.688 51.6532 5.08 52.6612 4.632C53.6852 4.184 54.9332 3.96 56.4052 3.96C57.4292 3.96 58.4372 4.088 59.4292 4.344C60.4212 4.6 61.2772 4.968 61.9972 5.448L61.0132 7.872C60.2772 7.44 59.5092 7.112 58.7092 6.888C57.9092 6.664 57.1332 6.552 56.3812 6.552C55.1492 6.552 54.2292 6.76 53.6212 7.176C53.0292 7.592 52.7332 8.144 52.7332 8.832C52.7332 9.312 52.9012 9.704 53.2372 10.008C53.5892 10.312 54.0292 10.552 54.5572 10.728C55.0852 10.904 55.8052 11.104 56.7172 11.328C57.9652 11.616 58.9892 11.92 59.7892 12.24C60.5892 12.544 61.2692 13.016 61.8292 13.656C62.4052 14.296 62.6932 15.16 62.6932 16.248C62.6932 17.176 62.4372 18.016 61.9252 18.768C61.4292 19.52 60.6692 20.12 59.6452 20.568C58.6212 21.016 57.3732 21.24 55.9012 21.24ZM73.4429 20.304C73.0909 20.592 72.6589 20.808 72.1469 20.952C71.6509 21.096 71.1229 21.168 70.5629 21.168C69.1549 21.168 68.0669 20.8 67.2989 20.064C66.5309 19.328 66.1469 18.256 66.1469 16.848V10.68H64.0349V8.28H66.1469V5.352H69.1469V8.28H72.5789V10.68H69.1469V16.776C69.1469 17.4 69.2989 17.88 69.6029 18.216C69.9069 18.536 70.3469 18.696 70.9229 18.696C71.5949 18.696 72.1549 18.52 72.6029 18.168L73.4429 20.304ZM87.7769 14.664C87.7769 14.872 87.7609 15.168 87.7289 15.552H77.6729C77.8489 16.496 78.3049 17.248 79.0409 17.808C79.7929 18.352 80.7209 18.624 81.8249 18.624C83.2329 18.624 84.3929 18.16 85.3049 17.232L86.9129 19.08C86.3369 19.768 85.6089 20.288 84.7289 20.64C83.8489 20.992 82.8569 21.168 81.7529 21.168C80.3449 21.168 79.1049 20.888 78.0329 20.328C76.9609 19.768 76.1289 18.992 75.5369 18C74.9609 16.992 74.6729 15.856 74.6729 14.592C74.6729 13.344 74.9529 12.224 75.5129 11.232C76.0889 10.224 76.8809 9.44 77.8889 8.88C78.8969 8.32 80.0329 8.04 81.2969 8.04C82.5449 8.04 83.6569 8.32 84.6329 8.88C85.6249 9.424 86.3929 10.2 86.9369 11.208C87.4969 12.2 87.7769 13.352 87.7769 14.664ZM81.2969 10.44C80.3369 10.44 79.5209 10.728 78.8489 11.304C78.1929 11.864 77.7929 12.616 77.6489 13.56H84.9209C84.7929 12.632 84.4009 11.88 83.7449 11.304C83.0889 10.728 82.2729 10.44 81.2969 10.44ZM96.1066 5.448C94.8426 5.448 94.2106 6.136 94.2106 7.512V8.28H97.7386V10.68H94.3066V21H91.3066V10.68H89.1946V8.28H91.3066V7.464C91.3066 6.088 91.7066 5.008 92.5066 4.224C93.3066 3.424 94.4346 3.024 95.8906 3.024C97.0426 3.024 97.9466 3.256 98.6026 3.72L97.7626 5.976C97.2506 5.624 96.6986 5.448 96.1066 5.448ZM104.66 8.04C106.548 8.04 107.988 8.496 108.98 9.408C109.988 10.304 110.492 11.664 110.492 13.488V21H107.66V19.44C107.292 20 106.764 20.432 106.076 20.736C105.404 21.024 104.588 21.168 103.628 21.168C102.668 21.168 101.828 21.008 101.108 20.688C100.388 20.352 99.8276 19.896 99.4276 19.32C99.0436 18.728 98.8516 18.064 98.8516 17.328C98.8516 16.176 99.2756 15.256 100.124 14.568C100.988 13.864 102.34 13.512 104.18 13.512H107.492V13.32C107.492 12.424 107.22 11.736 106.676 11.256C106.148 10.776 105.356 10.536 104.3 10.536C103.58 10.536 102.868 10.648 102.164 10.872C101.476 11.096 100.892 11.408 100.412 11.808L99.2356 9.624C99.9076 9.112 100.716 8.72 101.66 8.448C102.604 8.176 103.604 8.04 104.66 8.04ZM104.252 18.984C105.004 18.984 105.668 18.816 106.244 18.48C106.836 18.128 107.252 17.632 107.492 16.992V15.504H104.396C102.668 15.504 101.804 16.072 101.804 17.208C101.804 17.752 102.02 18.184 102.452 18.504C102.884 18.824 103.484 18.984 104.252 18.984ZM121.854 8.04C123.47 8.04 124.766 8.512 125.742 9.456C126.718 10.4 127.206 11.8 127.206 13.656V21H124.206V14.04C124.206 12.92 123.942 12.08 123.414 11.52C122.886 10.944 122.134 10.656 121.158 10.656C120.054 10.656 119.182 10.992 118.542 11.664C117.902 12.32 117.582 13.272 117.582 14.52V21H114.582V8.184H117.438V9.84C117.934 9.248 118.558 8.8 119.31 8.496C120.062 8.192 120.91 8.04 121.854 8.04ZM153.844 21L153.82 9.864L148.3 19.08H146.908L141.388 10.008V21H138.412V4.2H140.98L147.652 15.336L154.204 4.2H156.772L156.796 21H153.844ZM167.046 21.168C165.75 21.168 164.582 20.888 163.542 20.328C162.502 19.768 161.686 18.992 161.094 18C160.518 16.992 160.23 15.856 160.23 14.592C160.23 13.328 160.518 12.2 161.094 11.208C161.686 10.216 162.502 9.44 163.542 8.88C164.582 8.32 165.75 8.04 167.046 8.04C168.358 8.04 169.534 8.32 170.574 8.88C171.614 9.44 172.422 10.216 172.998 11.208C173.59 12.2 173.886 13.328 173.886 14.592C173.886 15.856 173.59 16.992 172.998 18C172.422 18.992 171.614 19.768 170.574 20.328C169.534 20.888 168.358 21.168 167.046 21.168ZM167.046 18.6C168.15 18.6 169.062 18.232 169.782 17.496C170.502 16.76 170.862 15.792 170.862 14.592C170.862 13.392 170.502 12.424 169.782 11.688C169.062 10.952 168.15 10.584 167.046 10.584C165.942 10.584 165.03 10.952 164.31 11.688C163.606 12.424 163.254 13.392 163.254 14.592C163.254 15.792 163.606 16.76 164.31 17.496C165.03 18.232 165.942 18.6 167.046 18.6ZM184.267 8.04C185.883 8.04 187.179 8.512 188.155 9.456C189.131 10.4 189.619 11.8 189.619 13.656V21H186.619V14.04C186.619 12.92 186.355 12.08 185.827 11.52C185.299 10.944 184.547 10.656 183.571 10.656C182.467 10.656 181.595 10.992 180.955 11.664C180.315 12.32 179.995 13.272 179.995 14.52V21H176.995V3.192H179.995V9.672C180.491 9.144 181.099 8.744 181.819 8.472C182.555 8.184 183.371 8.04 184.267 8.04ZM205.83 14.664C205.83 14.872 205.814 15.168 205.782 15.552H195.726C195.902 16.496 196.358 17.248 197.094 17.808C197.846 18.352 198.774 18.624 199.878 18.624C201.286 18.624 202.446 18.16 203.358 17.232L204.966 19.08C204.39 19.768 203.662 20.288 202.782 20.64C201.902 20.992 200.91 21.168 199.806 21.168C198.398 21.168 197.158 20.888 196.086 20.328C195.014 19.768 194.182 18.992 193.59 18C193.014 16.992 192.726 15.856 192.726 14.592C192.726 13.344 193.006 12.224 193.566 11.232C194.142 10.224 194.934 9.44 195.942 8.88C196.95 8.32 198.086 8.04 199.35 8.04C200.598 8.04 201.71 8.32 202.686 8.88C203.678 9.424 204.446 10.2 204.99 11.208C205.55 12.2 205.83 13.352 205.83 14.664ZM199.35 10.44C198.39 10.44 197.574 10.728 196.902 11.304C196.246 11.864 195.846 12.616 195.702 13.56H202.974C202.846 12.632 202.454 11.88 201.798 11.304C201.142 10.728 200.326 10.44 199.35 10.44ZM216.223 8.04C217.839 8.04 219.135 8.512 220.111 9.456C221.087 10.4 221.575 11.8 221.575 13.656V21H218.575V14.04C218.575 12.92 218.311 12.08 217.783 11.52C217.255 10.944 216.503 10.656 215.527 10.656C214.423 10.656 213.551 10.992 212.911 11.664C212.271 12.32 211.951 13.272 211.951 14.52V21H208.951V8.184H211.807V9.84C212.303 9.248 212.927 8.8 213.679 8.496C214.431 8.192 215.279 8.04 216.223 8.04ZM229.581 21.168C228.541 21.168 227.525 21.032 226.533 20.76C225.541 20.488 224.749 20.144 224.157 19.728L225.309 17.448C225.885 17.832 226.573 18.144 227.373 18.384C228.189 18.608 228.989 18.72 229.773 18.72C231.565 18.72 232.461 18.248 232.461 17.304C232.461 16.856 232.229 16.544 231.765 16.368C231.317 16.192 230.589 16.024 229.581 15.864C228.525 15.704 227.661 15.52 226.989 15.312C226.333 15.104 225.757 14.744 225.261 14.232C224.781 13.704 224.541 12.976 224.541 12.048C224.541 10.832 225.045 9.864 226.053 9.144C227.077 8.408 228.453 8.04 230.181 8.04C231.061 8.04 231.941 8.144 232.821 8.352C233.701 8.544 234.421 8.808 234.981 9.144L233.829 11.424C232.741 10.784 231.517 10.464 230.157 10.464C229.277 10.464 228.605 10.6 228.141 10.872C227.693 11.128 227.469 11.472 227.469 11.904C227.469 12.384 227.709 12.728 228.189 12.936C228.685 13.128 229.445 13.312 230.469 13.488C231.493 13.648 232.333 13.832 232.989 14.04C233.645 14.248 234.205 14.6 234.669 15.096C235.149 15.592 235.389 16.296 235.389 17.208C235.389 18.408 234.869 19.368 233.829 20.088C232.789 20.808 231.373 21.168 229.581 21.168ZM243.445 15.504L241.213 17.616V21H238.213V3.192H241.213V13.944L247.429 8.184H251.029L245.677 13.56L251.533 21H247.885L243.445 15.504ZM253.593 8.184H256.593V21H253.593V8.184ZM255.105 6.072C254.561 6.072 254.105 5.904 253.737 5.568C253.369 5.216 253.185 4.784 253.185 4.272C253.185 3.76 253.369 3.336 253.737 3C254.105 2.648 254.561 2.472 255.105 2.472C255.649 2.472 256.105 2.64 256.473 2.976C256.841 3.296 257.025 3.704 257.025 4.2C257.025 4.728 256.841 5.176 256.473 5.544C256.121 5.896 255.665 6.072 255.105 6.072Z" fill="white"/>
<path d="M51.1592 34.726V37.708H55.8912V39.248H51.1592V43H49.3392V33.2H56.4932V34.726H51.1592ZM59.7545 36.616C60.2585 35.832 61.1452 35.44 62.4145 35.44V37.106C62.2652 37.078 62.1299 37.064 62.0085 37.064C61.3272 37.064 60.7952 37.2647 60.4125 37.666C60.0299 38.058 59.8385 38.6273 59.8385 39.374V43H58.0885V35.524H59.7545V36.616ZM67.3307 43.098C66.5747 43.098 65.8934 42.9347 65.2867 42.608C64.6801 42.2813 64.2041 41.8287 63.8587 41.25C63.5227 40.662 63.3547 39.9993 63.3547 39.262C63.3547 38.5247 63.5227 37.8667 63.8587 37.288C64.2041 36.7093 64.6801 36.2567 65.2867 35.93C65.8934 35.6033 66.5747 35.44 67.3307 35.44C68.0961 35.44 68.7821 35.6033 69.3887 35.93C69.9954 36.2567 70.4667 36.7093 70.8027 37.288C71.1481 37.8667 71.3207 38.5247 71.3207 39.262C71.3207 39.9993 71.1481 40.662 70.8027 41.25C70.4667 41.8287 69.9954 42.2813 69.3887 42.608C68.7821 42.9347 68.0961 43.098 67.3307 43.098ZM67.3307 41.6C67.9747 41.6 68.5067 41.3853 68.9267 40.956C69.3467 40.5267 69.5567 39.962 69.5567 39.262C69.5567 38.562 69.3467 37.9973 68.9267 37.568C68.5067 37.1387 67.9747 36.924 67.3307 36.924C66.6867 36.924 66.1547 37.1387 65.7347 37.568C65.3241 37.9973 65.1187 38.562 65.1187 39.262C65.1187 39.962 65.3241 40.5267 65.7347 40.956C66.1547 41.3853 66.6867 41.6 67.3307 41.6ZM77.3762 35.44C78.3188 35.44 79.0748 35.7153 79.6442 36.266C80.2135 36.8167 80.4982 37.6333 80.4982 38.716V43H78.7482V38.94C78.7482 38.2867 78.5942 37.7967 78.2862 37.47C77.9782 37.134 77.5395 36.966 76.9702 36.966C76.3262 36.966 75.8175 37.162 75.4442 37.554C75.0708 37.9367 74.8842 38.492 74.8842 39.22V43H73.1342V35.524H74.8002V36.49C75.0895 36.1447 75.4535 35.8833 75.8922 35.706C76.3308 35.5287 76.8255 35.44 77.3762 35.44ZM87.3522 42.594C87.1468 42.762 86.8948 42.888 86.5962 42.972C86.3068 43.056 85.9988 43.098 85.6722 43.098C84.8508 43.098 84.2162 42.8833 83.7682 42.454C83.3202 42.0247 83.0962 41.3993 83.0962 40.578V36.98H81.8642V35.58H83.0962V33.872H84.8462V35.58H86.8482V36.98H84.8462V40.536C84.8462 40.9 84.9348 41.18 85.1122 41.376C85.2895 41.5627 85.5462 41.656 85.8822 41.656C86.2742 41.656 86.6008 41.5533 86.8622 41.348L87.3522 42.594ZM100.459 41.474V43H93.1089V33.2H100.263V34.726H94.9289V37.274H99.6609V38.772H94.9289V41.474H100.459ZM106.702 35.44C107.644 35.44 108.4 35.7153 108.97 36.266C109.539 36.8167 109.824 37.6333 109.824 38.716V43H108.074V38.94C108.074 38.2867 107.92 37.7967 107.612 37.47C107.304 37.134 106.865 36.966 106.296 36.966C105.652 36.966 105.143 37.162 104.77 37.554C104.396 37.9367 104.21 38.492 104.21 39.22V43H102.46V35.524H104.126V36.49C104.415 36.1447 104.779 35.8833 105.218 35.706C105.656 35.5287 106.151 35.44 106.702 35.44ZM119.574 32.612V43H117.894V42.034C117.605 42.3887 117.245 42.6547 116.816 42.832C116.396 43.0093 115.929 43.098 115.416 43.098C114.697 43.098 114.049 42.9393 113.47 42.622C112.901 42.3047 112.453 41.8567 112.126 41.278C111.799 40.69 111.636 40.018 111.636 39.262C111.636 38.506 111.799 37.8387 112.126 37.26C112.453 36.6813 112.901 36.2333 113.47 35.916C114.049 35.5987 114.697 35.44 115.416 35.44C115.911 35.44 116.363 35.524 116.774 35.692C117.185 35.86 117.535 36.112 117.824 36.448V32.612H119.574ZM115.626 41.6C116.046 41.6 116.424 41.5067 116.76 41.32C117.096 41.124 117.362 40.8487 117.558 40.494C117.754 40.1393 117.852 39.7287 117.852 39.262C117.852 38.7953 117.754 38.3847 117.558 38.03C117.362 37.6753 117.096 37.4047 116.76 37.218C116.424 37.022 116.046 36.924 115.626 36.924C115.206 36.924 114.828 37.022 114.492 37.218C114.156 37.4047 113.89 37.6753 113.694 38.03C113.498 38.3847 113.4 38.7953 113.4 39.262C113.4 39.7287 113.498 40.1393 113.694 40.494C113.89 40.8487 114.156 41.124 114.492 41.32C114.828 41.5067 115.206 41.6 115.626 41.6ZM126.181 33.2H130.465C131.51 33.2 132.439 33.4053 133.251 33.816C134.063 34.2173 134.693 34.7913 135.141 35.538C135.589 36.2753 135.813 37.1293 135.813 38.1C135.813 39.0707 135.589 39.9293 135.141 40.676C134.693 41.4133 134.063 41.9873 133.251 42.398C132.439 42.7993 131.51 43 130.465 43H126.181V33.2ZM130.381 41.46C131.099 41.46 131.729 41.3247 132.271 41.054C132.821 40.774 133.241 40.382 133.531 39.878C133.829 39.3647 133.979 38.772 133.979 38.1C133.979 37.428 133.829 36.84 133.531 36.336C133.241 35.8227 132.821 35.4307 132.271 35.16C131.729 34.88 131.099 34.74 130.381 34.74H128.001V41.46H130.381ZM144.747 39.304C144.747 39.4253 144.738 39.598 144.719 39.822H138.853C138.956 40.3727 139.222 40.8113 139.651 41.138C140.09 41.4553 140.631 41.614 141.275 41.614C142.096 41.614 142.773 41.3433 143.305 40.802L144.243 41.88C143.907 42.2813 143.482 42.5847 142.969 42.79C142.456 42.9953 141.877 43.098 141.233 43.098C140.412 43.098 139.688 42.9347 139.063 42.608C138.438 42.2813 137.952 41.8287 137.607 41.25C137.271 40.662 137.103 39.9993 137.103 39.262C137.103 38.534 137.266 37.8807 137.593 37.302C137.929 36.714 138.391 36.2567 138.979 35.93C139.567 35.6033 140.23 35.44 140.967 35.44C141.695 35.44 142.344 35.6033 142.913 35.93C143.492 36.2473 143.94 36.7 144.257 37.288C144.584 37.8667 144.747 38.5387 144.747 39.304ZM140.967 36.84C140.407 36.84 139.931 37.008 139.539 37.344C139.156 37.6707 138.923 38.1093 138.839 38.66H143.081C143.006 38.1187 142.778 37.68 142.395 37.344C142.012 37.008 141.536 36.84 140.967 36.84ZM153.431 35.524L150.225 43H148.419L145.213 35.524H147.033L149.357 41.068L151.751 35.524H153.431ZM161.488 39.304C161.488 39.4253 161.479 39.598 161.46 39.822H155.594C155.697 40.3727 155.963 40.8113 156.392 41.138C156.831 41.4553 157.372 41.614 158.016 41.614C158.837 41.614 159.514 41.3433 160.046 40.802L160.984 41.88C160.648 42.2813 160.223 42.5847 159.71 42.79C159.197 42.9953 158.618 43.098 157.974 43.098C157.153 43.098 156.429 42.9347 155.804 42.608C155.179 42.2813 154.693 41.8287 154.348 41.25C154.012 40.662 153.844 39.9993 153.844 39.262C153.844 38.534 154.007 37.8807 154.334 37.302C154.67 36.714 155.132 36.2567 155.72 35.93C156.308 35.6033 156.971 35.44 157.708 35.44C158.436 35.44 159.085 35.6033 159.654 35.93C160.233 36.2473 160.681 36.7 160.998 37.288C161.325 37.8667 161.488 38.5387 161.488 39.304ZM157.708 36.84C157.148 36.84 156.672 37.008 156.28 37.344C155.897 37.6707 155.664 38.1093 155.58 38.66H159.822C159.747 38.1187 159.519 37.68 159.136 37.344C158.753 37.008 158.277 36.84 157.708 36.84ZM163.309 32.612H165.059V43H163.309V32.612ZM170.856 43.098C170.1 43.098 169.418 42.9347 168.812 42.608C168.205 42.2813 167.729 41.8287 167.384 41.25C167.048 40.662 166.88 39.9993 166.88 39.262C166.88 38.5247 167.048 37.8667 167.384 37.288C167.729 36.7093 168.205 36.2567 168.812 35.93C169.418 35.6033 170.1 35.44 170.856 35.44C171.621 35.44 172.307 35.6033 172.914 35.93C173.52 36.2567 173.992 36.7093 174.328 37.288C174.673 37.8667 174.846 38.5247 174.846 39.262C174.846 39.9993 174.673 40.662 174.328 41.25C173.992 41.8287 173.52 42.2813 172.914 42.608C172.307 42.9347 171.621 43.098 170.856 43.098ZM170.856 41.6C171.5 41.6 172.032 41.3853 172.452 40.956C172.872 40.5267 173.082 39.962 173.082 39.262C173.082 38.562 172.872 37.9973 172.452 37.568C172.032 37.1387 171.5 36.924 170.856 36.924C170.212 36.924 169.68 37.1387 169.26 37.568C168.849 37.9973 168.644 38.562 168.644 39.262C168.644 39.962 168.849 40.5267 169.26 40.956C169.68 41.3853 170.212 41.6 170.856 41.6ZM180.803 35.44C181.531 35.44 182.18 35.5987 182.749 35.916C183.328 36.2333 183.781 36.6813 184.107 37.26C184.434 37.8387 184.597 38.506 184.597 39.262C184.597 40.018 184.434 40.69 184.107 41.278C183.781 41.8567 183.328 42.3047 182.749 42.622C182.18 42.9393 181.531 43.098 180.803 43.098C179.795 43.098 178.997 42.762 178.409 42.09V45.716H176.659V35.524H178.325V36.504C178.615 36.1493 178.969 35.8833 179.389 35.706C179.819 35.5287 180.29 35.44 180.803 35.44ZM180.607 41.6C181.251 41.6 181.779 41.3853 182.189 40.956C182.609 40.5267 182.819 39.962 182.819 39.262C182.819 38.562 182.609 37.9973 182.189 37.568C181.779 37.1387 181.251 36.924 180.607 36.924C180.187 36.924 179.809 37.022 179.473 37.218C179.137 37.4047 178.871 37.6753 178.675 38.03C178.479 38.3847 178.381 38.7953 178.381 39.262C178.381 39.7287 178.479 40.1393 178.675 40.494C178.871 40.8487 179.137 41.124 179.473 41.32C179.809 41.5067 180.187 41.6 180.607 41.6ZM193.425 39.304C193.425 39.4253 193.416 39.598 193.397 39.822H187.531C187.634 40.3727 187.9 40.8113 188.329 41.138C188.768 41.4553 189.309 41.614 189.953 41.614C190.774 41.614 191.451 41.3433 191.983 40.802L192.921 41.88C192.585 42.2813 192.16 42.5847 191.647 42.79C191.134 42.9953 190.555 43.098 189.911 43.098C189.09 43.098 188.366 42.9347 187.741 42.608C187.116 42.2813 186.63 41.8287 186.285 41.25C185.949 40.662 185.781 39.9993 185.781 39.262C185.781 38.534 185.944 37.8807 186.271 37.302C186.607 36.714 187.069 36.2567 187.657 35.93C188.245 35.6033 188.908 35.44 189.645 35.44C190.373 35.44 191.022 35.6033 191.591 35.93C192.17 36.2473 192.618 36.7 192.935 37.288C193.262 37.8667 193.425 38.5387 193.425 39.304ZM189.645 36.84C189.085 36.84 188.609 37.008 188.217 37.344C187.834 37.6707 187.601 38.1093 187.517 38.66H191.759C191.684 38.1187 191.456 37.68 191.073 37.344C190.69 37.008 190.214 36.84 189.645 36.84ZM196.912 36.616C197.416 35.832 198.303 35.44 199.572 35.44V37.106C199.423 37.078 199.287 37.064 199.166 37.064C198.485 37.064 197.953 37.2647 197.57 37.666C197.187 38.058 196.996 38.6273 196.996 39.374V43H195.246V35.524H196.912V36.616Z" fill="white"/>
<path d="M5.64375 11.3313C6.18125 14.825 6.71875 15.6313 6.71875 19.125C6.71875 21.275 2.6875 23.1562 2.6875 23.1562V25.8438C2.6875 25.8438 6.71875 27.725 6.71875 29.875C6.71875 33.3687 6.18125 34.175 5.64375 37.6688C4.8375 43.3125 7.79375 46 10.4813 46C13.1687 46 16.125 46 16.125 46V40.625C16.125 40.625 11.2875 41.1625 11.2875 37.9375C11.2875 35.5187 11.825 35.5187 12.3625 30.1438C12.6312 27.725 11.0188 25.8438 9.40625 24.5C11.0188 23.1562 12.6312 21.5438 12.3625 19.125C11.5562 13.75 11.2875 13.75 11.2875 11.3313C11.2875 8.10625 16.125 8.375 16.125 8.375V3C16.125 3 13.4375 3 10.4813 3C7.525 3 4.8375 5.6875 5.64375 11.3313Z" fill="white"/>
<path d="M37.3562 11.3313C36.8187 14.825 36.2812 15.6313 36.2812 19.125C36.2812 21.275 40.3125 23.1562 40.3125 23.1562V25.8438C40.3125 25.8438 36.2812 27.725 36.2812 29.875C36.2812 33.3687 36.8187 34.175 37.3562 37.6688C38.1625 43.3125 35.2063 46 32.5188 46C29.8313 46 26.875 46 26.875 46V40.625C26.875 40.625 31.7125 41.1625 31.7125 37.9375C31.7125 35.5187 31.175 35.5187 30.6375 30.1438C30.3687 27.725 31.9812 25.8438 33.5938 24.5C31.9812 23.1562 30.3687 21.5438 30.6375 19.125C31.175 13.75 31.7125 13.75 31.7125 11.3313C31.7125 8.10625 26.875 8.375 26.875 8.375V3C26.875 3 29.5625 3 32.5188 3C35.475 3 38.1625 5.6875 37.3562 11.3313Z" fill="white"/>
</svg>
