<svg width="239" height="50" viewBox="0 0 239 50" fill="none" xmlns="http://www.w3.org/2000/svg">
<path d="M60.634 24.216C59.638 24.216 58.672 24.084 57.736 23.82C56.812 23.544 56.068 23.19 55.504 22.758L56.494 20.562C57.034 20.958 57.676 21.276 58.42 21.516C59.164 21.756 59.908 21.876 60.652 21.876C61.48 21.876 62.092 21.756 62.488 21.516C62.884 21.264 63.082 20.934 63.082 20.526C63.082 20.226 62.962 19.98 62.722 19.788C62.494 19.584 62.194 19.422 61.822 19.302C61.462 19.182 60.97 19.05 60.346 18.906C59.386 18.678 58.6 18.45 57.988 18.222C57.376 17.994 56.848 17.628 56.404 17.124C55.972 16.62 55.756 15.948 55.756 15.108C55.756 14.376 55.954 13.716 56.35 13.128C56.746 12.528 57.34 12.054 58.132 11.706C58.936 11.358 59.914 11.184 61.066 11.184C61.87 11.184 62.656 11.28 63.424 11.472C64.192 11.664 64.864 11.94 65.44 12.3L64.54 14.514C63.376 13.854 62.212 13.524 61.048 13.524C60.232 13.524 59.626 13.656 59.23 13.92C58.846 14.184 58.654 14.532 58.654 14.964C58.654 15.396 58.876 15.72 59.32 15.936C59.776 16.14 60.466 16.344 61.39 16.548C62.35 16.776 63.136 17.004 63.748 17.232C64.36 17.46 64.882 17.82 65.314 18.312C65.758 18.804 65.98 19.47 65.98 20.31C65.98 21.03 65.776 21.69 65.368 22.29C64.972 22.878 64.372 23.346 63.568 23.694C62.764 24.042 61.786 24.216 60.634 24.216ZM70.4067 13.776H66.3747V11.4H77.3547V13.776H73.3227V24H70.4067V13.776ZM88.6797 21.66V24H78.9237V11.4H88.4457V13.74H81.8217V16.476H87.6717V18.744H81.8217V21.66H88.6797ZM93.9159 13.74V17.07H99.7479V19.41H93.9159V24H90.9999V11.4H100.522V13.74H93.9159ZM110.267 21.3H104.417L103.301 24H100.313L105.929 11.4H108.809L114.443 24H111.383L110.267 21.3ZM109.349 19.086L107.351 14.262L105.353 19.086H109.349ZM127.306 11.4V24H124.912L118.63 16.35V24H115.75V11.4H118.162L124.426 19.05V11.4H127.306ZM146.851 24L146.833 16.44L143.125 22.668H141.811L138.121 16.602V24H135.385V11.4H137.797L142.513 19.23L147.157 11.4H149.551L149.587 24H146.851ZM158.678 24.216C157.37 24.216 156.188 23.934 155.132 23.37C154.088 22.806 153.266 22.032 152.666 21.048C152.078 20.052 151.784 18.936 151.784 17.7C151.784 16.464 152.078 15.354 152.666 14.37C153.266 13.374 154.088 12.594 155.132 12.03C156.188 11.466 157.37 11.184 158.678 11.184C159.986 11.184 161.162 11.466 162.206 12.03C163.25 12.594 164.072 13.374 164.672 14.37C165.272 15.354 165.572 16.464 165.572 17.7C165.572 18.936 165.272 20.052 164.672 21.048C164.072 22.032 163.25 22.806 162.206 23.37C161.162 23.934 159.986 24.216 158.678 24.216ZM158.678 21.732C159.422 21.732 160.094 21.564 160.694 21.228C161.294 20.88 161.762 20.4 162.098 19.788C162.446 19.176 162.62 18.48 162.62 17.7C162.62 16.92 162.446 16.224 162.098 15.612C161.762 15 161.294 14.526 160.694 14.19C160.094 13.842 159.422 13.668 158.678 13.668C157.934 13.668 157.262 13.842 156.662 14.19C156.062 14.526 155.588 15 155.24 15.612C154.904 16.224 154.736 16.92 154.736 17.7C154.736 18.48 154.904 19.176 155.24 19.788C155.588 20.4 156.062 20.88 156.662 21.228C157.262 21.564 157.934 21.732 158.678 21.732ZM179.32 11.4V24H176.404V18.834H170.68V24H167.764V11.4H170.68V16.368H176.404V11.4H179.32ZM192.057 21.66V24H182.301V11.4H191.823V13.74H185.199V16.476H191.049V18.744H185.199V21.66H192.057ZM205.933 11.4V24H203.539L197.257 16.35V24H194.377V11.4H196.789L203.053 19.05V11.4H205.933ZM213.054 24.216C212.058 24.216 211.092 24.084 210.156 23.82C209.232 23.544 208.488 23.19 207.924 22.758L208.914 20.562C209.454 20.958 210.096 21.276 210.84 21.516C211.584 21.756 212.328 21.876 213.072 21.876C213.9 21.876 214.512 21.756 214.908 21.516C215.304 21.264 215.502 20.934 215.502 20.526C215.502 20.226 215.382 19.98 215.142 19.788C214.914 19.584 214.614 19.422 214.242 19.302C213.882 19.182 213.39 19.05 212.766 18.906C211.806 18.678 211.02 18.45 210.408 18.222C209.796 17.994 209.268 17.628 208.824 17.124C208.392 16.62 208.176 15.948 208.176 15.108C208.176 14.376 208.374 13.716 208.77 13.128C209.166 12.528 209.76 12.054 210.552 11.706C211.356 11.358 212.334 11.184 213.486 11.184C214.29 11.184 215.076 11.28 215.844 11.472C216.612 11.664 217.284 11.94 217.86 12.3L216.96 14.514C215.796 13.854 214.632 13.524 213.468 13.524C212.652 13.524 212.046 13.656 211.65 13.92C211.266 14.184 211.074 14.532 211.074 14.964C211.074 15.396 211.296 15.72 211.74 15.936C212.196 16.14 212.886 16.344 213.81 16.548C214.77 16.776 215.556 17.004 216.168 17.232C216.78 17.46 217.302 17.82 217.734 18.312C218.178 18.804 218.4 19.47 218.4 20.31C218.4 21.03 218.196 21.69 217.788 22.29C217.392 22.878 216.792 23.346 215.988 23.694C215.184 24.042 214.206 24.216 213.054 24.216ZM224.982 19.05L223.29 20.814V24H220.392V11.4H223.29V17.286L228.87 11.4H232.11L226.89 17.016L232.416 24H229.014L224.982 19.05ZM233.717 11.4H236.633V24H233.717V11.4Z" fill="white"/>
<path d="M66.41 32L64.12 39H62.38L60.84 34.26L59.25 39H57.52L55.22 32H56.9L58.48 36.92L60.13 32H61.63L63.23 36.96L64.86 32H66.41ZM72.7344 37.7V39H67.3144V32H72.6044V33.3H68.9244V34.82H72.1744V36.08H68.9244V37.7H72.7344ZM79.1634 35.36C79.5634 35.4867 79.8767 35.7 80.1034 36C80.33 36.2933 80.4434 36.6567 80.4434 37.09C80.4434 37.7033 80.2034 38.1767 79.7234 38.51C79.25 38.8367 78.5567 39 77.6434 39H74.0234V32H77.4434C78.2967 32 78.95 32.1633 79.4034 32.49C79.8634 32.8167 80.0934 33.26 80.0934 33.82C80.0934 34.16 80.01 34.4633 79.8434 34.73C79.6834 34.9967 79.4567 35.2067 79.1634 35.36ZM75.6334 33.22V34.87H77.2434C77.6434 34.87 77.9467 34.8 78.1534 34.66C78.36 34.52 78.4634 34.3133 78.4634 34.04C78.4634 33.7667 78.36 33.5633 78.1534 33.43C77.9467 33.29 77.6434 33.22 77.2434 33.22H75.6334ZM77.5234 37.78C77.95 37.78 78.27 37.71 78.4834 37.57C78.7034 37.43 78.8134 37.2133 78.8134 36.92C78.8134 36.34 78.3834 36.05 77.5234 36.05H75.6334V37.78H77.5234ZM84.5019 32H87.6819C88.4419 32 89.1119 32.1467 89.6919 32.44C90.2785 32.7267 90.7319 33.1333 91.0519 33.66C91.3785 34.1867 91.5419 34.8 91.5419 35.5C91.5419 36.2 91.3785 36.8133 91.0519 37.34C90.7319 37.8667 90.2785 38.2767 89.6919 38.57C89.1119 38.8567 88.4419 39 87.6819 39H84.5019V32ZM87.6019 37.67C88.3019 37.67 88.8585 37.4767 89.2719 37.09C89.6919 36.6967 89.9019 36.1667 89.9019 35.5C89.9019 34.8333 89.6919 34.3067 89.2719 33.92C88.8585 33.5267 88.3019 33.33 87.6019 33.33H86.1219V37.67H87.6019ZM98.1836 37.7V39H92.7636V32H98.0536V33.3H94.3736V34.82H97.6236V36.08H94.3736V37.7H98.1836ZM101.773 39.12C101.219 39.12 100.683 39.0467 100.163 38.9C99.6492 38.7467 99.2359 38.55 98.9226 38.31L99.4726 37.09C99.7726 37.31 100.129 37.4867 100.543 37.62C100.956 37.7533 101.369 37.82 101.783 37.82C102.243 37.82 102.583 37.7533 102.803 37.62C103.023 37.48 103.133 37.2967 103.133 37.07C103.133 36.9033 103.066 36.7667 102.933 36.66C102.806 36.5467 102.639 36.4567 102.433 36.39C102.233 36.3233 101.959 36.25 101.613 36.17C101.079 36.0433 100.643 35.9167 100.303 35.79C99.9626 35.6633 99.6692 35.46 99.4226 35.18C99.1826 34.9 99.0626 34.5267 99.0626 34.06C99.0626 33.6533 99.1726 33.2867 99.3926 32.96C99.6126 32.6267 99.9426 32.3633 100.383 32.17C100.829 31.9767 101.373 31.88 102.013 31.88C102.459 31.88 102.896 31.9333 103.323 32.04C103.749 32.1467 104.123 32.3 104.443 32.5L103.943 33.73C103.296 33.3633 102.649 33.18 102.003 33.18C101.549 33.18 101.213 33.2533 100.993 33.4C100.779 33.5467 100.673 33.74 100.673 33.98C100.673 34.22 100.796 34.4 101.043 34.52C101.296 34.6333 101.679 34.7467 102.193 34.86C102.726 34.9867 103.163 35.1133 103.503 35.24C103.843 35.3667 104.133 35.5667 104.373 35.84C104.619 36.1133 104.743 36.4833 104.743 36.95C104.743 37.35 104.629 37.7167 104.403 38.05C104.183 38.3767 103.849 38.6367 103.403 38.83C102.956 39.0233 102.413 39.12 101.773 39.12ZM105.85 32H107.47V39H105.85V32ZM113.861 35.39H115.341V38.23C114.961 38.5167 114.521 38.7367 114.021 38.89C113.521 39.0433 113.017 39.12 112.511 39.12C111.784 39.12 111.131 38.9667 110.551 38.66C109.971 38.3467 109.514 37.9167 109.181 37.37C108.854 36.8167 108.691 36.1933 108.691 35.5C108.691 34.8067 108.854 34.1867 109.181 33.64C109.514 33.0867 109.974 32.6567 110.561 32.35C111.147 32.0367 111.807 31.88 112.541 31.88C113.154 31.88 113.711 31.9833 114.211 32.19C114.711 32.3967 115.131 32.6967 115.471 33.09L114.431 34.05C113.931 33.5233 113.327 33.26 112.621 33.26C112.174 33.26 111.777 33.3533 111.431 33.54C111.084 33.7267 110.814 33.99 110.621 34.33C110.427 34.67 110.331 35.06 110.331 35.5C110.331 35.9333 110.427 36.32 110.621 36.66C110.814 37 111.081 37.2667 111.421 37.46C111.767 37.6467 112.161 37.74 112.601 37.74C113.067 37.74 113.487 37.64 113.861 37.44V35.39ZM123.266 32V39H121.936L118.446 34.75V39H116.846V32H118.186L121.666 36.25V32H123.266ZM130.342 37.7V39H124.922V32H130.212V33.3H126.532V34.82H129.782V36.08H126.532V37.7H130.342ZM136.091 39L134.741 37.05H134.661H133.251V39H131.631V32H134.661C135.281 32 135.817 32.1033 136.271 32.31C136.731 32.5167 137.084 32.81 137.331 33.19C137.577 33.57 137.701 34.02 137.701 34.54C137.701 35.06 137.574 35.51 137.321 35.89C137.074 36.2633 136.721 36.55 136.261 36.75L137.831 39H136.091ZM136.061 34.54C136.061 34.1467 135.934 33.8467 135.681 33.64C135.427 33.4267 135.057 33.32 134.571 33.32H133.251V35.76H134.571C135.057 35.76 135.427 35.6533 135.681 35.44C135.934 35.2267 136.061 34.9267 136.061 34.54ZM147.196 39.12L146.356 38.34C145.69 38.86 144.91 39.12 144.016 39.12C143.51 39.12 143.053 39.04 142.646 38.88C142.24 38.7133 141.92 38.4833 141.686 38.19C141.46 37.8967 141.346 37.5667 141.346 37.2C141.346 36.7667 141.466 36.3867 141.706 36.06C141.953 35.7267 142.346 35.41 142.886 35.11C142.633 34.85 142.45 34.6033 142.336 34.37C142.223 34.13 142.166 33.8833 142.166 33.63C142.166 33.29 142.256 32.99 142.436 32.73C142.616 32.47 142.87 32.27 143.196 32.13C143.53 31.9833 143.913 31.91 144.346 31.91C144.953 31.91 145.44 32.0567 145.806 32.35C146.173 32.6367 146.356 33.0267 146.356 33.52C146.356 33.88 146.246 34.2 146.026 34.48C145.813 34.76 145.466 35.03 144.986 35.29L146.266 36.48C146.42 36.16 146.536 35.7967 146.616 35.39L147.866 35.78C147.733 36.4 147.52 36.93 147.226 37.37L148.046 38.13L147.196 39.12ZM144.346 32.97C144.113 32.97 143.926 33.03 143.786 33.15C143.653 33.27 143.586 33.4233 143.586 33.61C143.586 33.75 143.623 33.8833 143.696 34.01C143.77 34.13 143.913 34.2933 144.126 34.5C144.466 34.32 144.703 34.16 144.836 34.02C144.97 33.8733 145.036 33.7167 145.036 33.55C145.036 33.3767 144.976 33.2367 144.856 33.13C144.736 33.0233 144.566 32.97 144.346 32.97ZM144.126 37.9C144.613 37.9 145.05 37.7633 145.436 37.49L143.746 35.91C143.433 36.09 143.21 36.2667 143.076 36.44C142.943 36.6133 142.876 36.81 142.876 37.03C142.876 37.29 142.99 37.5 143.216 37.66C143.443 37.82 143.746 37.9 144.126 37.9ZM151.924 32H155.104C155.864 32 156.534 32.1467 157.114 32.44C157.7 32.7267 158.154 33.1333 158.474 33.66C158.8 34.1867 158.964 34.8 158.964 35.5C158.964 36.2 158.8 36.8133 158.474 37.34C158.154 37.8667 157.7 38.2767 157.114 38.57C156.534 38.8567 155.864 39 155.104 39H151.924V32ZM155.024 37.67C155.724 37.67 156.28 37.4767 156.694 37.09C157.114 36.6967 157.324 36.1667 157.324 35.5C157.324 34.8333 157.114 34.3067 156.694 33.92C156.28 33.5267 155.724 33.33 155.024 33.33H153.544V37.67H155.024ZM165.605 37.7V39H160.185V32H165.475V33.3H161.795V34.82H165.045V36.08H161.795V37.7H165.605ZM173.527 32L170.497 39H168.897L165.877 32H167.627L169.757 37L171.917 32H173.527ZM179.531 37.7V39H174.111V32H179.401V33.3H175.721V34.82H178.971V36.08H175.721V37.7H179.531ZM180.82 32H182.44V37.68H185.95V39H180.82V32ZM190.128 39.12C189.402 39.12 188.745 38.9633 188.158 38.65C187.578 38.3367 187.122 37.9067 186.788 37.36C186.462 36.8067 186.298 36.1867 186.298 35.5C186.298 34.8133 186.462 34.1967 186.788 33.65C187.122 33.0967 187.578 32.6633 188.158 32.35C188.745 32.0367 189.402 31.88 190.128 31.88C190.855 31.88 191.508 32.0367 192.088 32.35C192.668 32.6633 193.125 33.0967 193.458 33.65C193.792 34.1967 193.958 34.8133 193.958 35.5C193.958 36.1867 193.792 36.8067 193.458 37.36C193.125 37.9067 192.668 38.3367 192.088 38.65C191.508 38.9633 190.855 39.12 190.128 39.12ZM190.128 37.74C190.542 37.74 190.915 37.6467 191.248 37.46C191.582 37.2667 191.842 37 192.028 36.66C192.222 36.32 192.318 35.9333 192.318 35.5C192.318 35.0667 192.222 34.68 192.028 34.34C191.842 34 191.582 33.7367 191.248 33.55C190.915 33.3567 190.542 33.26 190.128 33.26C189.715 33.26 189.342 33.3567 189.008 33.55C188.675 33.7367 188.412 34 188.218 34.34C188.032 34.68 187.938 35.0667 187.938 35.5C187.938 35.9333 188.032 36.32 188.218 36.66C188.412 37 188.675 37.2667 189.008 37.46C189.342 37.6467 189.715 37.74 190.128 37.74ZM198.206 32C198.826 32 199.362 32.1033 199.816 32.31C200.276 32.5167 200.629 32.81 200.876 33.19C201.122 33.57 201.246 34.02 201.246 34.54C201.246 35.0533 201.122 35.5033 200.876 35.89C200.629 36.27 200.276 36.5633 199.816 36.77C199.362 36.97 198.826 37.07 198.206 37.07H196.796V39H195.176V32H198.206ZM198.116 35.75C198.602 35.75 198.972 35.6467 199.226 35.44C199.479 35.2267 199.606 34.9267 199.606 34.54C199.606 34.1467 199.479 33.8467 199.226 33.64C198.972 33.4267 198.602 33.32 198.116 33.32H196.796V35.75H198.116ZM207.822 37.7V39H202.402V32H207.692V33.3H204.012V34.82H207.262V36.08H204.012V37.7H207.822ZM213.571 39L212.221 37.05H212.141H210.731V39H209.111V32H212.141C212.761 32 213.298 32.1033 213.751 32.31C214.211 32.5167 214.565 32.81 214.811 33.19C215.058 33.57 215.181 34.02 215.181 34.54C215.181 35.06 215.055 35.51 214.801 35.89C214.555 36.2633 214.201 36.55 213.741 36.75L215.311 39H213.571ZM213.541 34.54C213.541 34.1467 213.415 33.8467 213.161 33.64C212.908 33.4267 212.538 33.32 212.051 33.32H210.731V35.76H212.051C212.538 35.76 212.908 35.6533 213.161 35.44C213.415 35.2267 213.541 34.9267 213.541 34.54Z" fill="white"/>
<circle cx="25" cy="25" r="23" stroke="white" stroke-width="4"/>
<g clip-path="url(#clip0)">
<path d="M22.8157 38.9751L19.5751 38.0417C19.2351 37.9467 19.0438 37.5934 19.1394 37.2559L26.391 12.4602C26.4866 12.1227 26.8426 11.9329 27.1826 12.0278L30.4232 12.9612C30.7632 13.0561 30.9544 13.4094 30.8588 13.7469L23.6073 38.5426C23.5063 38.8801 23.1557 39.0753 22.8157 38.9751V38.9751ZM16.7594 33.0583L19.0704 30.6114C19.3148 30.353 19.2988 29.9417 19.0279 29.7044L14.2148 25.5014L19.0279 21.2985C19.2988 21.0612 19.3201 20.6499 19.0704 20.3915L16.7594 17.9446C16.5204 17.6915 16.1166 17.6756 15.8563 17.9182L8.20101 25.0374C7.93007 25.2852 7.93007 25.7124 8.20101 25.9602L15.8563 33.0846C16.1166 33.3272 16.5204 33.3167 16.7594 33.0583V33.0583ZM34.1419 33.0899L41.7973 25.9655C42.0682 25.7176 42.0682 25.2905 41.7973 25.0426L34.1419 17.913C33.8869 17.6756 33.4832 17.6862 33.2388 17.9393L30.9279 20.3862C30.6835 20.6446 30.6994 21.0559 30.9704 21.2932L35.7835 25.5014L30.9704 29.7044C30.6994 29.9417 30.6782 30.353 30.9279 30.6114L33.2388 33.0583C33.4779 33.3167 33.8816 33.3272 34.1419 33.0899V33.0899Z" fill="white"/>
</g>
<defs>
<clipPath id="clip0">
<rect width="34" height="27" fill="white" transform="translate(8 12)"/>
</clipPath>
</defs>
</svg>
