<svg width="253" height="50" viewBox="0 0 253 50" fill="none" xmlns="http://www.w3.org/2000/svg">
<path d="M59.3711 16.5234C59.3711 15.8594 59.1367 15.3516 58.668 15C58.1992 14.6406 57.3555 14.2656 56.1367 13.875C54.918 13.4766 53.9531 13.0859 53.2422 12.7031C51.3047 11.6562 50.3359 10.2461 50.3359 8.47266C50.3359 7.55078 50.5938 6.73047 51.1094 6.01172C51.6328 5.28516 52.3789 4.71875 53.3477 4.3125C54.3242 3.90625 55.418 3.70312 56.6289 3.70312C57.8477 3.70312 58.9336 3.92578 59.8867 4.37109C60.8398 4.80859 61.5781 5.42969 62.1016 6.23438C62.6328 7.03906 62.8984 7.95313 62.8984 8.97656H59.3828C59.3828 8.19531 59.1367 7.58984 58.6445 7.16016C58.1523 6.72266 57.4609 6.50391 56.5703 6.50391C55.7109 6.50391 55.043 6.6875 54.5664 7.05469C54.0898 7.41406 53.8516 7.89062 53.8516 8.48438C53.8516 9.03906 54.1289 9.50391 54.6836 9.87891C55.2461 10.2539 56.0703 10.6055 57.1562 10.9336C59.1562 11.5352 60.6133 12.2812 61.5273 13.1719C62.4414 14.0625 62.8984 15.1719 62.8984 16.5C62.8984 17.9766 62.3398 19.1367 61.2227 19.9805C60.1055 20.8164 58.6016 21.2344 56.7109 21.2344C55.3984 21.2344 54.2031 20.9961 53.125 20.5195C52.0469 20.0352 51.2227 19.375 50.6523 18.5391C50.0898 17.7031 49.8086 16.7344 49.8086 15.6328H53.3359C53.3359 17.5156 54.4609 18.457 56.7109 18.457C57.5469 18.457 58.1992 18.2891 58.668 17.9531C59.1367 17.6094 59.3711 17.1328 59.3711 16.5234ZM69.1211 5.20312V8.32031H71.2891V10.8047H69.1211V17.1328C69.1211 17.6016 69.2109 17.9375 69.3906 18.1406C69.5703 18.3438 69.9141 18.4453 70.4219 18.4453C70.7969 18.4453 71.1289 18.418 71.418 18.3633V20.9297C70.7539 21.1328 70.0703 21.2344 69.3672 21.2344C66.9922 21.2344 65.7812 20.0352 65.7344 17.6367V10.8047H63.8828V8.32031H65.7344V5.20312H69.1211ZM79.0117 21.2344C77.1523 21.2344 75.6367 20.6641 74.4648 19.5234C73.3008 18.3828 72.7188 16.8633 72.7188 14.9648V14.6367C72.7188 13.3633 72.9648 12.2266 73.457 11.2266C73.9492 10.2188 74.6445 9.44531 75.543 8.90625C76.4492 8.35938 77.4805 8.08594 78.6367 8.08594C80.3711 8.08594 81.7344 8.63281 82.7266 9.72656C83.7266 10.8203 84.2266 12.3711 84.2266 14.3789V15.7617H76.1523C76.2617 16.5898 76.5898 17.2539 77.1367 17.7539C77.6914 18.2539 78.3906 18.5039 79.2344 18.5039C80.5391 18.5039 81.5586 18.0312 82.293 17.0859L83.957 18.9492C83.4492 19.668 82.7617 20.2305 81.8945 20.6367C81.0273 21.0352 80.0664 21.2344 79.0117 21.2344ZM78.625 10.8281C77.9531 10.8281 77.4062 11.0547 76.9844 11.5078C76.5703 11.9609 76.3047 12.6094 76.1875 13.4531H80.8984V13.1836C80.8828 12.4336 80.6797 11.8555 80.2891 11.4492C79.8984 11.0352 79.3438 10.8281 78.625 10.8281ZM87.0859 21V10.8047H85.1992V8.32031H87.0859V7.24219C87.0859 5.82031 87.4922 4.71875 88.3047 3.9375C89.125 3.14844 90.2695 2.75391 91.7383 2.75391C92.207 2.75391 92.7812 2.83203 93.4609 2.98828L93.4258 5.61328C93.1445 5.54297 92.8008 5.50781 92.3945 5.50781C91.1211 5.50781 90.4844 6.10547 90.4844 7.30078V8.32031H93.0039V10.8047H90.4844V21H87.0859ZM102.109 21C101.953 20.6953 101.84 20.3164 101.77 19.8633C100.949 20.7773 99.8828 21.2344 98.5703 21.2344C97.3281 21.2344 96.2969 20.875 95.4766 20.1562C94.6641 19.4375 94.2578 18.5312 94.2578 17.4375C94.2578 16.0938 94.7539 15.0625 95.7461 14.3438C96.7461 13.625 98.1875 13.2617 100.07 13.2539H101.629V12.5273C101.629 11.9414 101.477 11.4727 101.172 11.1211C100.875 10.7695 100.402 10.5938 99.7539 10.5938C99.1836 10.5938 98.7344 10.7305 98.4062 11.0039C98.0859 11.2773 97.9258 11.6523 97.9258 12.1289H94.5391C94.5391 11.3945 94.7656 10.7148 95.2188 10.0898C95.6719 9.46484 96.3125 8.97656 97.1406 8.625C97.9688 8.26562 98.8984 8.08594 99.9297 8.08594C101.492 8.08594 102.73 8.48047 103.645 9.26953C104.566 10.0508 105.027 11.1523 105.027 12.5742V18.0703C105.035 19.2734 105.203 20.1836 105.531 20.8008V21H102.109ZM99.3086 18.6445C99.8086 18.6445 100.27 18.5352 100.691 18.3164C101.113 18.0898 101.426 17.7891 101.629 17.4141V15.2344H100.363C98.668 15.2344 97.7656 15.8203 97.6562 16.9922L97.6445 17.1914C97.6445 17.6133 97.793 17.9609 98.0898 18.2344C98.3867 18.5078 98.793 18.6445 99.3086 18.6445ZM110.746 8.32031L110.852 9.78516C111.758 8.65234 112.973 8.08594 114.496 8.08594C115.84 8.08594 116.84 8.48047 117.496 9.26953C118.152 10.0586 118.488 11.2383 118.504 12.8086V21H115.117V12.8906C115.117 12.1719 114.961 11.6523 114.648 11.332C114.336 11.0039 113.816 10.8398 113.09 10.8398C112.137 10.8398 111.422 11.2461 110.945 12.0586V21H107.559V8.32031H110.746ZM131.875 3.9375L136.258 16.3125L140.617 3.9375H145.234V21H141.707V16.3359L142.059 8.28516L137.453 21H135.039L130.445 8.29688L130.797 16.3359V21H127.281V3.9375H131.875ZM147.555 14.543C147.555 13.2852 147.797 12.1641 148.281 11.1797C148.766 10.1953 149.461 9.43359 150.367 8.89453C151.281 8.35547 152.34 8.08594 153.543 8.08594C155.254 8.08594 156.648 8.60938 157.727 9.65625C158.812 10.7031 159.418 12.125 159.543 13.9219L159.566 14.7891C159.566 16.7344 159.023 18.2969 157.938 19.4766C156.852 20.6484 155.395 21.2344 153.566 21.2344C151.738 21.2344 150.277 20.6484 149.184 19.4766C148.098 18.3047 147.555 16.7109 147.555 14.6953V14.543ZM150.941 14.7891C150.941 15.9922 151.168 16.9141 151.621 17.5547C152.074 18.1875 152.723 18.5039 153.566 18.5039C154.387 18.5039 155.027 18.1914 155.488 17.5664C155.949 16.9336 156.18 15.9258 156.18 14.543C156.18 13.3633 155.949 12.4492 155.488 11.8008C155.027 11.1523 154.379 10.8281 153.543 10.8281C152.715 10.8281 152.074 11.1523 151.621 11.8008C151.168 12.4414 150.941 13.4375 150.941 14.7891ZM164.957 9.70312C165.855 8.625 166.984 8.08594 168.344 8.08594C171.094 8.08594 172.488 9.68359 172.527 12.8789V21H169.141V12.9727C169.141 12.2461 168.984 11.7109 168.672 11.3672C168.359 11.0156 167.84 10.8398 167.113 10.8398C166.121 10.8398 165.402 11.2227 164.957 11.9883V21H161.57V3H164.957V9.70312ZM180.918 21.2344C179.059 21.2344 177.543 20.6641 176.371 19.5234C175.207 18.3828 174.625 16.8633 174.625 14.9648V14.6367C174.625 13.3633 174.871 12.2266 175.363 11.2266C175.855 10.2188 176.551 9.44531 177.449 8.90625C178.355 8.35938 179.387 8.08594 180.543 8.08594C182.277 8.08594 183.641 8.63281 184.633 9.72656C185.633 10.8203 186.133 12.3711 186.133 14.3789V15.7617H178.059C178.168 16.5898 178.496 17.2539 179.043 17.7539C179.598 18.2539 180.297 18.5039 181.141 18.5039C182.445 18.5039 183.465 18.0312 184.199 17.0859L185.863 18.9492C185.355 19.668 184.668 20.2305 183.801 20.6367C182.934 21.0352 181.973 21.2344 180.918 21.2344ZM180.531 10.8281C179.859 10.8281 179.312 11.0547 178.891 11.5078C178.477 11.9609 178.211 12.6094 178.094 13.4531H182.805V13.1836C182.789 12.4336 182.586 11.8555 182.195 11.4492C181.805 11.0352 181.25 10.8281 180.531 10.8281ZM191.184 8.32031L191.289 9.78516C192.195 8.65234 193.41 8.08594 194.934 8.08594C196.277 8.08594 197.277 8.48047 197.934 9.26953C198.59 10.0586 198.926 11.2383 198.941 12.8086V21H195.555V12.8906C195.555 12.1719 195.398 11.6523 195.086 11.332C194.773 11.0039 194.254 10.8398 193.527 10.8398C192.574 10.8398 191.859 11.2461 191.383 12.0586V21H187.996V8.32031H191.184ZM208.387 17.4961C208.387 17.082 208.18 16.7578 207.766 16.5234C207.359 16.2812 206.703 16.0664 205.797 15.8789C202.781 15.2461 201.273 13.9648 201.273 12.0352C201.273 10.9102 201.738 9.97266 202.668 9.22266C203.605 8.46484 204.828 8.08594 206.336 8.08594C207.945 8.08594 209.23 8.46484 210.191 9.22266C211.16 9.98047 211.645 10.9648 211.645 12.1758H208.258C208.258 11.6914 208.102 11.293 207.789 10.9805C207.477 10.6602 206.988 10.5 206.324 10.5C205.754 10.5 205.312 10.6289 205 10.8867C204.688 11.1445 204.531 11.4727 204.531 11.8711C204.531 12.2461 204.707 12.5508 205.059 12.7852C205.418 13.0117 206.02 13.2109 206.863 13.3828C207.707 13.5469 208.418 13.7344 208.996 13.9453C210.785 14.6016 211.68 15.7383 211.68 17.3555C211.68 18.5117 211.184 19.4492 210.191 20.168C209.199 20.8789 207.918 21.2344 206.348 21.2344C205.285 21.2344 204.34 21.0469 203.512 20.6719C202.691 20.2891 202.047 19.7695 201.578 19.1133C201.109 18.4492 200.875 17.7344 200.875 16.9688H204.086C204.117 17.5703 204.34 18.0312 204.754 18.3516C205.168 18.6719 205.723 18.832 206.418 18.832C207.066 18.832 207.555 18.7109 207.883 18.4688C208.219 18.2188 208.387 17.8945 208.387 17.4961ZM218.477 15.9141L217.258 17.1328V21H213.871V3H217.258V12.9727L217.914 12.1289L221.16 8.32031H225.227L220.645 13.6055L225.625 21H221.734L218.477 15.9141ZM230.266 21H226.867V8.32031H230.266V21ZM226.668 5.03906C226.668 4.53125 226.836 4.11328 227.172 3.78516C227.516 3.45703 227.98 3.29297 228.566 3.29297C229.145 3.29297 229.605 3.45703 229.949 3.78516C230.293 4.11328 230.465 4.53125 230.465 5.03906C230.465 5.55469 230.289 5.97656 229.938 6.30469C229.594 6.63281 229.137 6.79688 228.566 6.79688C227.996 6.79688 227.535 6.63281 227.184 6.30469C226.84 5.97656 226.668 5.55469 226.668 5.03906Z" fill="white"/>
<path d="M55.877 37.9326H51.9395V42H49.8887V32.0469H56.3691V33.708H51.9395V36.2783H55.877V37.9326ZM61.4072 36.4561C61.1383 36.4196 60.9014 36.4014 60.6963 36.4014C59.9489 36.4014 59.459 36.6543 59.2266 37.1602V42H57.251V34.6035H59.1172L59.1719 35.4854C59.5684 34.8063 60.1175 34.4668 60.8193 34.4668C61.0381 34.4668 61.2432 34.4964 61.4346 34.5557L61.4072 36.4561ZM61.8105 38.2334C61.8105 37.4997 61.9518 36.8457 62.2344 36.2715C62.5169 35.6973 62.9225 35.2529 63.4512 34.9385C63.9844 34.624 64.6019 34.4668 65.3037 34.4668C66.3018 34.4668 67.1152 34.7721 67.7441 35.3828C68.3776 35.9935 68.7308 36.8229 68.8037 37.8711L68.8174 38.377C68.8174 39.5117 68.5007 40.4232 67.8672 41.1113C67.2337 41.7949 66.3838 42.1367 65.3174 42.1367C64.251 42.1367 63.3988 41.7949 62.7607 41.1113C62.1273 40.4277 61.8105 39.498 61.8105 38.3223V38.2334ZM63.7861 38.377C63.7861 39.0788 63.9183 39.6165 64.1826 39.9902C64.4469 40.3594 64.8252 40.5439 65.3174 40.5439C65.7959 40.5439 66.1696 40.3617 66.4385 39.9971C66.7074 39.6279 66.8418 39.04 66.8418 38.2334C66.8418 37.5452 66.7074 37.012 66.4385 36.6338C66.1696 36.2555 65.7913 36.0664 65.3037 36.0664C64.8206 36.0664 64.4469 36.2555 64.1826 36.6338C63.9183 37.0075 63.7861 37.5885 63.7861 38.377ZM71.8525 34.6035L71.9141 35.458C72.4427 34.7972 73.1514 34.4668 74.04 34.4668C74.8239 34.4668 75.4072 34.6969 75.79 35.1572C76.1729 35.6175 76.3688 36.3057 76.3779 37.2217V42H74.4023V37.2695C74.4023 36.8503 74.3112 36.5472 74.1289 36.3604C73.9466 36.1689 73.6436 36.0732 73.2197 36.0732C72.6637 36.0732 72.2467 36.3102 71.9688 36.7842V42H69.9932V34.6035H71.8525ZM80.2471 32.7852V34.6035H81.5117V36.0527H80.2471V39.7441C80.2471 40.0176 80.2995 40.2135 80.4043 40.332C80.5091 40.4505 80.7096 40.5098 81.0059 40.5098C81.2246 40.5098 81.4183 40.4938 81.5869 40.4619V41.959C81.1995 42.0775 80.8008 42.1367 80.3906 42.1367C79.0052 42.1367 78.2988 41.4372 78.2715 40.0381V36.0527H77.1914V34.6035H78.2715V32.7852H80.2471ZM92.2168 37.6865H88.2793V40.3525H92.9004V42H86.2285V32.0469H92.8867V33.708H88.2793V36.0801H92.2168V37.6865ZM95.792 34.6035L95.8535 35.458C96.3822 34.7972 97.0908 34.4668 97.9795 34.4668C98.7633 34.4668 99.3467 34.6969 99.7295 35.1572C100.112 35.6175 100.308 36.3057 100.317 37.2217V42H98.3418V37.2695C98.3418 36.8503 98.2507 36.5472 98.0684 36.3604C97.8861 36.1689 97.583 36.0732 97.1592 36.0732C96.6032 36.0732 96.1862 36.3102 95.9082 36.7842V42H93.9326V34.6035H95.792ZM101.514 38.2471C101.514 37.0941 101.771 36.1758 102.286 35.4922C102.806 34.8086 103.514 34.4668 104.412 34.4668C105.132 34.4668 105.727 34.7357 106.196 35.2734V31.5H108.179V42H106.395L106.299 41.2139C105.807 41.8291 105.173 42.1367 104.398 42.1367C103.528 42.1367 102.828 41.7949 102.3 41.1113C101.776 40.4232 101.514 39.4684 101.514 38.2471ZM103.489 38.3906C103.489 39.0833 103.61 39.6143 103.852 39.9834C104.093 40.3525 104.444 40.5371 104.904 40.5371C105.515 40.5371 105.946 40.2796 106.196 39.7646V36.8457C105.95 36.3307 105.524 36.0732 104.918 36.0732C103.965 36.0732 103.489 36.8457 103.489 38.3906ZM113.326 42V32.0469H116.389C117.264 32.0469 118.045 32.2451 118.733 32.6416C119.426 33.0335 119.966 33.5941 120.354 34.3232C120.741 35.0479 120.935 35.8727 120.935 36.7979V37.2559C120.935 38.181 120.743 39.0036 120.36 39.7236C119.982 40.4437 119.447 41.002 118.754 41.3984C118.061 41.7949 117.28 41.9954 116.409 42H113.326ZM115.377 33.708V40.3525H116.368C117.17 40.3525 117.783 40.0905 118.207 39.5664C118.631 39.0423 118.847 38.2926 118.856 37.3174V36.791C118.856 35.7793 118.647 35.0137 118.228 34.4941C117.808 33.9701 117.195 33.708 116.389 33.708H115.377ZM125.706 42.1367C124.621 42.1367 123.737 41.804 123.054 41.1387C122.375 40.4733 122.035 39.5869 122.035 38.4795V38.2881C122.035 37.5452 122.179 36.8822 122.466 36.2988C122.753 35.7109 123.159 35.2598 123.683 34.9453C124.211 34.6263 124.813 34.4668 125.487 34.4668C126.499 34.4668 127.294 34.7858 127.873 35.4238C128.456 36.0618 128.748 36.9665 128.748 38.1377V38.9443H124.038C124.102 39.4274 124.293 39.8148 124.612 40.1064C124.936 40.3981 125.344 40.5439 125.836 40.5439C126.597 40.5439 127.192 40.2682 127.62 39.7168L128.591 40.8037C128.295 41.223 127.894 41.5511 127.388 41.7881C126.882 42.0205 126.321 42.1367 125.706 42.1367ZM125.48 36.0664C125.089 36.0664 124.77 36.1986 124.523 36.4629C124.282 36.7272 124.127 37.1055 124.059 37.5977H126.807V37.4404C126.798 37.0029 126.679 36.6657 126.451 36.4287C126.223 36.1872 125.9 36.0664 125.48 36.0664ZM132.549 39.5869L133.923 34.6035H135.987L133.492 42H131.605L129.11 34.6035H131.175L132.549 39.5869ZM140.171 42.1367C139.086 42.1367 138.202 41.804 137.519 41.1387C136.84 40.4733 136.5 39.5869 136.5 38.4795V38.2881C136.5 37.5452 136.644 36.8822 136.931 36.2988C137.218 35.7109 137.623 35.2598 138.147 34.9453C138.676 34.6263 139.278 34.4668 139.952 34.4668C140.964 34.4668 141.759 34.7858 142.338 35.4238C142.921 36.0618 143.213 36.9665 143.213 38.1377V38.9443H138.503C138.567 39.4274 138.758 39.8148 139.077 40.1064C139.401 40.3981 139.809 40.5439 140.301 40.5439C141.062 40.5439 141.657 40.2682 142.085 39.7168L143.056 40.8037C142.759 41.223 142.358 41.5511 141.853 41.7881C141.347 42.0205 140.786 42.1367 140.171 42.1367ZM139.945 36.0664C139.553 36.0664 139.234 36.1986 138.988 36.4629C138.747 36.7272 138.592 37.1055 138.523 37.5977H141.271V37.4404C141.262 37.0029 141.144 36.6657 140.916 36.4287C140.688 36.1872 140.365 36.0664 139.945 36.0664ZM146.426 42H144.443V31.5H146.426V42ZM147.752 38.2334C147.752 37.4997 147.893 36.8457 148.176 36.2715C148.458 35.6973 148.864 35.2529 149.393 34.9385C149.926 34.624 150.543 34.4668 151.245 34.4668C152.243 34.4668 153.057 34.7721 153.686 35.3828C154.319 35.9935 154.672 36.8229 154.745 37.8711L154.759 38.377C154.759 39.5117 154.442 40.4232 153.809 41.1113C153.175 41.7949 152.325 42.1367 151.259 42.1367C150.192 42.1367 149.34 41.7949 148.702 41.1113C148.069 40.4277 147.752 39.498 147.752 38.3223V38.2334ZM149.728 38.377C149.728 39.0788 149.86 39.6165 150.124 39.9902C150.388 40.3594 150.767 40.5439 151.259 40.5439C151.737 40.5439 152.111 40.3617 152.38 39.9971C152.649 39.6279 152.783 39.04 152.783 38.2334C152.783 37.5452 152.649 37.012 152.38 36.6338C152.111 36.2555 151.733 36.0664 151.245 36.0664C150.762 36.0664 150.388 36.2555 150.124 36.6338C149.86 37.0075 149.728 37.5885 149.728 38.377ZM162.634 38.3701C162.634 39.5094 162.374 40.4232 161.854 41.1113C161.34 41.7949 160.642 42.1367 159.763 42.1367C159.015 42.1367 158.411 41.877 157.951 41.3574V44.8438H155.976V34.6035H157.808L157.876 35.3281C158.354 34.7539 158.979 34.4668 159.749 34.4668C160.66 34.4668 161.369 34.804 161.875 35.4785C162.381 36.153 162.634 37.0827 162.634 38.2676V38.3701ZM160.658 38.2266C160.658 37.5384 160.535 37.0075 160.289 36.6338C160.048 36.2601 159.694 36.0732 159.229 36.0732C158.61 36.0732 158.184 36.3102 157.951 36.7842V39.8125C158.193 40.3001 158.623 40.5439 159.243 40.5439C160.187 40.5439 160.658 39.7715 160.658 38.2266ZM167.269 42.1367C166.184 42.1367 165.3 41.804 164.616 41.1387C163.937 40.4733 163.598 39.5869 163.598 38.4795V38.2881C163.598 37.5452 163.741 36.8822 164.028 36.2988C164.315 35.7109 164.721 35.2598 165.245 34.9453C165.774 34.6263 166.375 34.4668 167.05 34.4668C168.062 34.4668 168.857 34.7858 169.436 35.4238C170.019 36.0618 170.311 36.9665 170.311 38.1377V38.9443H165.601C165.664 39.4274 165.856 39.8148 166.175 40.1064C166.498 40.3981 166.906 40.5439 167.398 40.5439C168.16 40.5439 168.754 40.2682 169.183 39.7168L170.153 40.8037C169.857 41.223 169.456 41.5511 168.95 41.7881C168.444 42.0205 167.884 42.1367 167.269 42.1367ZM167.043 36.0664C166.651 36.0664 166.332 36.1986 166.086 36.4629C165.844 36.7272 165.689 37.1055 165.621 37.5977H168.369V37.4404C168.36 37.0029 168.242 36.6657 168.014 36.4287C167.786 36.1872 167.462 36.0664 167.043 36.0664ZM175.595 36.4561C175.326 36.4196 175.089 36.4014 174.884 36.4014C174.136 36.4014 173.646 36.6543 173.414 37.1602V42H171.438V34.6035H173.305L173.359 35.4854C173.756 34.8063 174.305 34.4668 175.007 34.4668C175.226 34.4668 175.431 34.4964 175.622 34.5557L175.595 36.4561Z" fill="white"/>
<path d="M5.5125 12.1375C6.0375 15.55 6.5625 16.3375 6.5625 19.75C6.5625 21.85 2.625 23.6875 2.625 23.6875V26.3125C2.625 26.3125 6.5625 28.15 6.5625 30.25C6.5625 33.6625 6.0375 34.45 5.5125 37.8625C4.725 43.375 7.6125 46 10.2375 46C12.8625 46 15.75 46 15.75 46V40.75C15.75 40.75 11.025 41.275 11.025 38.125C11.025 35.7625 11.55 35.7625 12.075 30.5125C12.3375 28.15 10.7625 26.3125 9.1875 25C10.7625 23.6875 12.3375 22.1125 12.075 19.75C11.2875 14.5 11.025 14.5 11.025 12.1375C11.025 8.9875 15.75 9.25 15.75 9.25V4C15.75 4 13.125 4 10.2375 4C7.35 4 4.725 6.625 5.5125 12.1375V12.1375Z" fill="white"/>
<path d="M36.4875 12.1375C35.9625 15.55 35.4375 16.3375 35.4375 19.75C35.4375 21.85 39.375 23.6875 39.375 23.6875V26.3125C39.375 26.3125 35.4375 28.15 35.4375 30.25C35.4375 33.6625 35.9625 34.45 36.4875 37.8625C37.275 43.375 34.3875 46 31.7625 46C29.1375 46 26.25 46 26.25 46V40.75C26.25 40.75 30.975 41.275 30.975 38.125C30.975 35.7625 30.45 35.7625 29.925 30.5125C29.6625 28.15 31.2375 26.3125 32.8125 25C31.2375 23.6875 29.6625 22.1125 29.925 19.75C30.45 14.5 30.975 14.5 30.975 12.1375C30.975 8.9875 26.25 9.25 26.25 9.25V4C26.25 4 28.875 4 31.7625 4C34.65 4 37.275 6.625 36.4875 12.1375Z" fill="white"/>
</svg>
