<svg width="84" height="65" viewBox="0 0 84 65" fill="none" xmlns="http://www.w3.org/2000/svg">
<path d="M63.8256 33.7794V65.0001H84V33.7794H63.8256ZM74.3186 35.072C74.5599 35.072 74.7593 35.2776 74.7593 35.5218C74.7593 35.7681 74.5599 35.9717 74.3186 35.9717C74.0773 35.9717 73.8779 35.7681 73.8779 35.5218C73.8779 35.2776 74.0773 35.072 74.3186 35.072ZM71.7043 36.5701H76.9349V36.9996H71.7043V36.5701ZM74.1471 63.6526C73.5628 63.6526 73.1002 63.1722 73.1002 62.5799C73.1002 61.9936 73.5628 61.5173 74.1471 61.5173C74.7234 61.5173 75.194 61.9936 75.194 62.5799C75.194 63.1722 74.7234 63.6526 74.1471 63.6526ZM81.0846 59.9765C76.3645 60.0029 69.088 60.0192 66.7489 60.0009V38.5344L81.0846 38.5323V59.9765Z" fill="white"/>
<path d="M17.3727 42.2918H5.57753V10.1735H5.54762V5.65872H70.2925V32.0776H75.8421V0H0V10.1735V17.6886V42.2918V49.3897V49.6115H20.7826V49.5952H30.9546V52.789H30.9187H17.3727H15.0875V55.4229H17.3727H30.9187H60.0826V52.789H44.2514V49.5952H61.8554V42.2918H20.7826H17.3727Z" fill="white"/>
</svg>
