<svg width="65" height="65" viewBox="0 0 65 65" fill="none" xmlns="http://www.w3.org/2000/svg">
<path d="M58.3523 26.5909H56.8577C56.7339 21.7216 55.1454 17.0027 52.2993 13.0498C49.4532 9.0969 45.4818 6.09364 40.9032 4.43184H53.2867C53.4665 5.12812 53.894 5.73493 54.4892 6.13853C55.0844 6.54213 55.8063 6.71481 56.5197 6.6242C57.2331 6.53358 57.8889 6.1859 58.3643 5.64633C58.8397 5.10675 59.102 4.41232 59.102 3.6932C59.102 2.97408 58.8397 2.27965 58.3643 1.74007C57.8889 1.2005 57.2331 0.852815 56.5197 0.762203C55.8063 0.671591 55.0844 0.844269 54.4892 1.24787C53.894 1.65147 53.4665 2.25828 53.2867 2.95456H35.4545V1.47729C35.4545 1.28139 35.3767 1.09352 35.2382 0.954996C35.0997 0.816475 34.9118 0.738655 34.7159 0.738655H30.2841C30.0882 0.738655 29.9003 0.816475 29.7618 0.954996C29.6233 1.09352 29.5454 1.28139 29.5454 1.47729V2.95456H11.7133C11.5335 2.25828 11.106 1.65147 10.5108 1.24787C9.9156 0.844269 9.19366 0.671591 8.48027 0.762203C7.76689 0.852815 7.11104 1.2005 6.63566 1.74007C6.16028 2.27965 5.89801 2.97408 5.89801 3.6932C5.89801 4.41232 6.16028 5.10675 6.63566 5.64633C7.11104 6.1859 7.76689 6.53358 8.48027 6.6242C9.19366 6.71481 9.9156 6.54213 10.5108 6.13853C11.106 5.73493 11.5335 5.12812 11.7133 4.43184H24.0967C19.518 6.09364 15.5466 9.0969 12.7005 13.0498C9.85444 17.0027 8.26589 21.7216 8.14212 26.5909H6.64771C6.45182 26.5909 6.26394 26.6687 6.12542 26.8073C5.9869 26.9458 5.90908 27.1337 5.90908 27.3296V31.7614C5.90908 31.9573 5.9869 32.1452 6.12542 32.2837C6.26394 32.4222 6.45182 32.5 6.64771 32.5H11.0795C11.2754 32.5 11.4633 32.4222 11.6018 32.2837C11.7403 32.1452 11.8182 31.9573 11.8182 31.7614V27.3296C11.8182 27.1337 11.7403 26.9458 11.6018 26.8073C11.4633 26.6687 11.2754 26.5909 11.0795 26.5909H9.61954C9.76776 21.1526 11.859 15.9473 15.5143 11.918C19.1696 7.88862 24.1473 5.30181 29.5454 4.62617V5.90911C29.5454 6.10501 29.6233 6.29288 29.7618 6.4314C29.9003 6.56992 30.0882 6.64774 30.2841 6.64774H34.7159C34.9118 6.64774 35.0997 6.56992 35.2382 6.4314C35.3767 6.29288 35.4545 6.10501 35.4545 5.90911V4.62617C40.8527 5.30181 45.8304 7.88862 49.4857 11.918C53.141 15.9473 55.2322 21.1526 55.3804 26.5909H53.9204C53.7245 26.5909 53.5367 26.6687 53.3981 26.8073C53.2596 26.9458 53.1818 27.1337 53.1818 27.3296V31.7614C53.1818 31.9573 53.2596 32.1452 53.3981 32.2837C53.5367 32.4222 53.7245 32.5 53.9204 32.5H58.3523C58.5482 32.5 58.736 32.4222 58.8746 32.2837C59.0131 32.1452 59.0909 31.9573 59.0909 31.7614V27.3296C59.0909 27.1337 59.0131 26.9458 58.8746 26.8073C58.736 26.6687 58.5482 26.5909 58.3523 26.5909Z" fill="white"/>
<path d="M34.638 10.0105C34.5636 9.86161 34.4411 9.74223 34.2904 9.67169C34.1396 9.60115 33.9695 9.58358 33.8075 9.62182C33.6456 9.66006 33.5013 9.75187 33.398 9.88238C33.2947 10.0129 33.2386 10.1744 33.2386 10.3409V34.2801C33.2386 34.423 33.2802 34.5629 33.3581 34.6828C33.4361 34.8026 33.5472 34.8972 33.6779 34.9552C34.3007 35.2259 34.8113 35.703 35.1236 36.3061C35.4359 36.9091 35.5309 37.6014 35.3926 38.2663C35.2544 38.9312 34.8912 39.5282 34.3644 39.9568C33.8375 40.3853 33.1791 40.6193 32.5 40.6193C31.8208 40.6193 31.1624 40.3853 30.6356 39.9568C30.1087 39.5282 29.7456 38.9312 29.6073 38.2663C29.4691 37.6014 29.5641 36.9091 29.8764 36.3061C30.1887 35.703 30.6992 35.2259 31.3221 34.9552C31.4528 34.8972 31.5639 34.8026 31.6418 34.6828C31.7198 34.5629 31.7613 34.423 31.7613 34.2801V10.3409C31.7614 10.1744 31.7052 10.0129 31.602 9.88238C31.4987 9.75187 31.3544 9.66006 31.1924 9.62182C31.0305 9.58358 30.8603 9.60115 30.7096 9.67169C30.5589 9.74223 30.4364 9.86161 30.362 10.0105L16.3279 38.0786C16.2767 38.1812 16.25 38.2944 16.25 38.409C16.25 38.5237 16.2767 38.6368 16.3279 38.7394L21.7025 49.4886H43.2975L48.6721 38.7394C48.7233 38.6368 48.75 38.5237 48.75 38.409C48.75 38.2944 48.7233 38.1812 48.6721 38.0786L34.638 10.0105Z" fill="white"/>
<path d="M45.0568 50.9659H19.9432C19.5352 50.9659 19.2045 51.2966 19.2045 51.7046V56.1364C19.2045 56.5443 19.5352 56.875 19.9432 56.875H45.0568C45.4647 56.875 45.7954 56.5443 45.7954 56.1364V51.7046C45.7954 51.2966 45.4647 50.9659 45.0568 50.9659Z" fill="white"/>
<path d="M21.4204 63.5227C21.4204 63.7186 21.4983 63.9065 21.6368 64.045C21.7753 64.1836 21.9632 64.2614 22.1591 64.2614H42.8409C43.0368 64.2614 43.2247 64.1836 43.3632 64.045C43.5017 63.9065 43.5795 63.7186 43.5795 63.5227V58.3523H21.4204V63.5227Z" fill="white"/>
</svg>
